%TF.GenerationSoftware,KiCad,Pcbnew,5.1.6-c6e7f7d~87~ubuntu18.04.1*%
%TF.CreationDate,2022-04-02T14:34:37-07:00*%
%TF.ProjectId,kelvin-probe,6b656c76-696e-42d7-9072-6f62652e6b69,rev?*%
%TF.SameCoordinates,Original*%
%TF.FileFunction,Copper,L1,Top*%
%TF.FilePolarity,Positive*%
%FSLAX46Y46*%
G04 Gerber Fmt 4.6, Leading zero omitted, Abs format (unit mm)*
G04 Created by KiCad (PCBNEW 5.1.6-c6e7f7d~87~ubuntu18.04.1) date 2022-04-02 14:34:37*
%MOMM*%
%LPD*%
G01*
G04 APERTURE LIST*
%TA.AperFunction,ConnectorPad*%
%ADD10R,1.000000X5.000000*%
%TD*%
%TA.AperFunction,ViaPad*%
%ADD11C,1.500000*%
%TD*%
%TA.AperFunction,Conductor*%
%ADD12C,1.000000*%
%TD*%
%TA.AperFunction,Conductor*%
%ADD13C,0.254000*%
%TD*%
G04 APERTURE END LIST*
D10*
%TO.P,J4,2*%
%TO.N,GND*%
X81000000Y-49000000D03*
%TO.P,J4,1*%
%TO.N,Net-(J4-Pad1)*%
X83500000Y-49000000D03*
%TO.P,J4,2*%
%TO.N,GND*%
X86000000Y-49000000D03*
%TD*%
%TO.P,J3,2*%
%TO.N,GND*%
X94000000Y-49000000D03*
%TO.P,J3,1*%
%TO.N,Net-(IP2-Pad1)*%
X96500000Y-49000000D03*
%TO.P,J3,2*%
%TO.N,GND*%
X99000000Y-49000000D03*
%TD*%
%TO.P,J2,2*%
%TO.N,GND*%
X69000000Y-49000000D03*
%TO.P,J2,1*%
%TO.N,Net-(J2-Pad1)*%
X71500000Y-49000000D03*
%TO.P,J2,2*%
%TO.N,GND*%
X74000000Y-49000000D03*
%TD*%
%TO.P,J1,2*%
%TO.N,GND*%
X56000000Y-49000000D03*
%TO.P,J1,1*%
%TO.N,Net-(IP1-Pad1)*%
X58500000Y-49000000D03*
%TO.P,J1,2*%
%TO.N,GND*%
X61000000Y-49000000D03*
%TD*%
D11*
%TO.N,Net-(IP1-Pad1)*%
X67500000Y-59500000D03*
%TO.N,Net-(J2-Pad1)*%
X71500000Y-59500000D03*
%TO.N,Net-(IP2-Pad1)*%
X87500000Y-59500000D03*
%TO.N,Net-(J4-Pad1)*%
X83500000Y-59500000D03*
%TD*%
D12*
%TO.N,Net-(IP1-Pad1)*%
X67500000Y-59500000D02*
X63500000Y-59500000D01*
X63500000Y-59500000D02*
X58500000Y-54500000D01*
X58500000Y-54500000D02*
X58500000Y-49000000D01*
%TO.N,Net-(J2-Pad1)*%
X71500000Y-59500000D02*
X71500000Y-49000000D01*
%TO.N,Net-(IP2-Pad1)*%
X87500000Y-59500000D02*
X91500000Y-59500000D01*
X96500000Y-54500000D02*
X96500000Y-49000000D01*
X91500000Y-59500000D02*
X96500000Y-54500000D01*
%TO.N,Net-(J4-Pad1)*%
X83500000Y-59500000D02*
X83500000Y-49000000D01*
%TD*%
D13*
%TO.N,GND*%
G36*
X54865000Y-48714250D02*
G01*
X55023750Y-48873000D01*
X55873000Y-48873000D01*
X55873000Y-48853000D01*
X56127000Y-48853000D01*
X56127000Y-48873000D01*
X56147000Y-48873000D01*
X56147000Y-49127000D01*
X56127000Y-49127000D01*
X56127000Y-51976250D01*
X56285750Y-52135000D01*
X56500000Y-52138072D01*
X56624482Y-52125812D01*
X56744180Y-52089502D01*
X56854494Y-52030537D01*
X56951185Y-51951185D01*
X57030537Y-51854494D01*
X57089502Y-51744180D01*
X57123001Y-51633750D01*
X57123000Y-54432360D01*
X57116338Y-54500000D01*
X57142925Y-54769939D01*
X57221663Y-55029504D01*
X57349527Y-55268720D01*
X57521603Y-55478396D01*
X57574146Y-55521517D01*
X62478483Y-60425855D01*
X62521603Y-60478397D01*
X62731279Y-60650473D01*
X62943248Y-60763773D01*
X62970495Y-60778337D01*
X63230060Y-60857075D01*
X63500000Y-60883662D01*
X63567640Y-60877000D01*
X66632305Y-60877000D01*
X66729327Y-60941828D01*
X67025422Y-61064475D01*
X67339755Y-61127000D01*
X67660245Y-61127000D01*
X67974578Y-61064475D01*
X68270673Y-60941828D01*
X68537152Y-60763773D01*
X68763773Y-60537152D01*
X68941828Y-60270673D01*
X69064475Y-59974578D01*
X69127000Y-59660245D01*
X69127000Y-59339755D01*
X69064475Y-59025422D01*
X68941828Y-58729327D01*
X68763773Y-58462848D01*
X68537152Y-58236227D01*
X68270673Y-58058172D01*
X67974578Y-57935525D01*
X67660245Y-57873000D01*
X67339755Y-57873000D01*
X67025422Y-57935525D01*
X66729327Y-58058172D01*
X66632305Y-58123000D01*
X64070372Y-58123000D01*
X59877000Y-53929629D01*
X59877000Y-51633752D01*
X59910498Y-51744180D01*
X59969463Y-51854494D01*
X60048815Y-51951185D01*
X60145506Y-52030537D01*
X60255820Y-52089502D01*
X60375518Y-52125812D01*
X60500000Y-52138072D01*
X60714250Y-52135000D01*
X60873000Y-51976250D01*
X60873000Y-49127000D01*
X61127000Y-49127000D01*
X61127000Y-51976250D01*
X61285750Y-52135000D01*
X61500000Y-52138072D01*
X61624482Y-52125812D01*
X61744180Y-52089502D01*
X61854494Y-52030537D01*
X61951185Y-51951185D01*
X62030537Y-51854494D01*
X62089502Y-51744180D01*
X62125812Y-51624482D01*
X62138072Y-51500000D01*
X67861928Y-51500000D01*
X67874188Y-51624482D01*
X67910498Y-51744180D01*
X67969463Y-51854494D01*
X68048815Y-51951185D01*
X68145506Y-52030537D01*
X68255820Y-52089502D01*
X68375518Y-52125812D01*
X68500000Y-52138072D01*
X68714250Y-52135000D01*
X68873000Y-51976250D01*
X68873000Y-49127000D01*
X68023750Y-49127000D01*
X67865000Y-49285750D01*
X67861928Y-51500000D01*
X62138072Y-51500000D01*
X62135000Y-49285750D01*
X61976250Y-49127000D01*
X61127000Y-49127000D01*
X60873000Y-49127000D01*
X60853000Y-49127000D01*
X60853000Y-48873000D01*
X60873000Y-48873000D01*
X60873000Y-48853000D01*
X61127000Y-48853000D01*
X61127000Y-48873000D01*
X61976250Y-48873000D01*
X62135000Y-48714250D01*
X62137815Y-46685000D01*
X67862185Y-46685000D01*
X67865000Y-48714250D01*
X68023750Y-48873000D01*
X68873000Y-48873000D01*
X68873000Y-48853000D01*
X69127000Y-48853000D01*
X69127000Y-48873000D01*
X69147000Y-48873000D01*
X69147000Y-49127000D01*
X69127000Y-49127000D01*
X69127000Y-51976250D01*
X69285750Y-52135000D01*
X69500000Y-52138072D01*
X69624482Y-52125812D01*
X69744180Y-52089502D01*
X69854494Y-52030537D01*
X69951185Y-51951185D01*
X70030537Y-51854494D01*
X70089502Y-51744180D01*
X70123001Y-51633750D01*
X70123000Y-58632305D01*
X70058172Y-58729327D01*
X69935525Y-59025422D01*
X69873000Y-59339755D01*
X69873000Y-59660245D01*
X69935525Y-59974578D01*
X70058172Y-60270673D01*
X70236227Y-60537152D01*
X70462848Y-60763773D01*
X70729327Y-60941828D01*
X71025422Y-61064475D01*
X71339755Y-61127000D01*
X71660245Y-61127000D01*
X71974578Y-61064475D01*
X72270673Y-60941828D01*
X72537152Y-60763773D01*
X72763773Y-60537152D01*
X72941828Y-60270673D01*
X73064475Y-59974578D01*
X73127000Y-59660245D01*
X73127000Y-59339755D01*
X73087127Y-59139297D01*
X73837720Y-59139297D01*
X73837720Y-59860703D01*
X73978460Y-60568248D01*
X74254530Y-61234740D01*
X74655322Y-61834567D01*
X75165433Y-62344678D01*
X75765260Y-62745470D01*
X76431752Y-63021540D01*
X77139297Y-63162280D01*
X77860703Y-63162280D01*
X78568248Y-63021540D01*
X79234740Y-62745470D01*
X79834567Y-62344678D01*
X80344678Y-61834567D01*
X80745470Y-61234740D01*
X81021540Y-60568248D01*
X81162280Y-59860703D01*
X81162280Y-59139297D01*
X81021540Y-58431752D01*
X80745470Y-57765260D01*
X80344678Y-57165433D01*
X79834567Y-56655322D01*
X79234740Y-56254530D01*
X78568248Y-55978460D01*
X77860703Y-55837720D01*
X77139297Y-55837720D01*
X76431752Y-55978460D01*
X75765260Y-56254530D01*
X75165433Y-56655322D01*
X74655322Y-57165433D01*
X74254530Y-57765260D01*
X73978460Y-58431752D01*
X73837720Y-59139297D01*
X73087127Y-59139297D01*
X73064475Y-59025422D01*
X72941828Y-58729327D01*
X72877000Y-58632305D01*
X72877000Y-51633752D01*
X72910498Y-51744180D01*
X72969463Y-51854494D01*
X73048815Y-51951185D01*
X73145506Y-52030537D01*
X73255820Y-52089502D01*
X73375518Y-52125812D01*
X73500000Y-52138072D01*
X73714250Y-52135000D01*
X73873000Y-51976250D01*
X73873000Y-49127000D01*
X74127000Y-49127000D01*
X74127000Y-51976250D01*
X74285750Y-52135000D01*
X74500000Y-52138072D01*
X74624482Y-52125812D01*
X74744180Y-52089502D01*
X74854494Y-52030537D01*
X74951185Y-51951185D01*
X75030537Y-51854494D01*
X75089502Y-51744180D01*
X75125812Y-51624482D01*
X75138072Y-51500000D01*
X79861928Y-51500000D01*
X79874188Y-51624482D01*
X79910498Y-51744180D01*
X79969463Y-51854494D01*
X80048815Y-51951185D01*
X80145506Y-52030537D01*
X80255820Y-52089502D01*
X80375518Y-52125812D01*
X80500000Y-52138072D01*
X80714250Y-52135000D01*
X80873000Y-51976250D01*
X80873000Y-49127000D01*
X80023750Y-49127000D01*
X79865000Y-49285750D01*
X79861928Y-51500000D01*
X75138072Y-51500000D01*
X75135000Y-49285750D01*
X74976250Y-49127000D01*
X74127000Y-49127000D01*
X73873000Y-49127000D01*
X73853000Y-49127000D01*
X73853000Y-48873000D01*
X73873000Y-48873000D01*
X73873000Y-48853000D01*
X74127000Y-48853000D01*
X74127000Y-48873000D01*
X74976250Y-48873000D01*
X75135000Y-48714250D01*
X75137815Y-46685000D01*
X79862185Y-46685000D01*
X79865000Y-48714250D01*
X80023750Y-48873000D01*
X80873000Y-48873000D01*
X80873000Y-48853000D01*
X81127000Y-48853000D01*
X81127000Y-48873000D01*
X81147000Y-48873000D01*
X81147000Y-49127000D01*
X81127000Y-49127000D01*
X81127000Y-51976250D01*
X81285750Y-52135000D01*
X81500000Y-52138072D01*
X81624482Y-52125812D01*
X81744180Y-52089502D01*
X81854494Y-52030537D01*
X81951185Y-51951185D01*
X82030537Y-51854494D01*
X82089502Y-51744180D01*
X82123001Y-51633750D01*
X82123000Y-58632305D01*
X82058172Y-58729327D01*
X81935525Y-59025422D01*
X81873000Y-59339755D01*
X81873000Y-59660245D01*
X81935525Y-59974578D01*
X82058172Y-60270673D01*
X82236227Y-60537152D01*
X82462848Y-60763773D01*
X82729327Y-60941828D01*
X83025422Y-61064475D01*
X83339755Y-61127000D01*
X83660245Y-61127000D01*
X83974578Y-61064475D01*
X84270673Y-60941828D01*
X84537152Y-60763773D01*
X84763773Y-60537152D01*
X84941828Y-60270673D01*
X85064475Y-59974578D01*
X85127000Y-59660245D01*
X85127000Y-59339755D01*
X85064475Y-59025422D01*
X84941828Y-58729327D01*
X84877000Y-58632305D01*
X84877000Y-51633752D01*
X84910498Y-51744180D01*
X84969463Y-51854494D01*
X85048815Y-51951185D01*
X85145506Y-52030537D01*
X85255820Y-52089502D01*
X85375518Y-52125812D01*
X85500000Y-52138072D01*
X85714250Y-52135000D01*
X85873000Y-51976250D01*
X85873000Y-49127000D01*
X86127000Y-49127000D01*
X86127000Y-51976250D01*
X86285750Y-52135000D01*
X86500000Y-52138072D01*
X86624482Y-52125812D01*
X86744180Y-52089502D01*
X86854494Y-52030537D01*
X86951185Y-51951185D01*
X87030537Y-51854494D01*
X87089502Y-51744180D01*
X87125812Y-51624482D01*
X87138072Y-51500000D01*
X92861928Y-51500000D01*
X92874188Y-51624482D01*
X92910498Y-51744180D01*
X92969463Y-51854494D01*
X93048815Y-51951185D01*
X93145506Y-52030537D01*
X93255820Y-52089502D01*
X93375518Y-52125812D01*
X93500000Y-52138072D01*
X93714250Y-52135000D01*
X93873000Y-51976250D01*
X93873000Y-49127000D01*
X93023750Y-49127000D01*
X92865000Y-49285750D01*
X92861928Y-51500000D01*
X87138072Y-51500000D01*
X87135000Y-49285750D01*
X86976250Y-49127000D01*
X86127000Y-49127000D01*
X85873000Y-49127000D01*
X85853000Y-49127000D01*
X85853000Y-48873000D01*
X85873000Y-48873000D01*
X85873000Y-48853000D01*
X86127000Y-48853000D01*
X86127000Y-48873000D01*
X86976250Y-48873000D01*
X87135000Y-48714250D01*
X87137815Y-46685000D01*
X92862185Y-46685000D01*
X92865000Y-48714250D01*
X93023750Y-48873000D01*
X93873000Y-48873000D01*
X93873000Y-48853000D01*
X94127000Y-48853000D01*
X94127000Y-48873000D01*
X94147000Y-48873000D01*
X94147000Y-49127000D01*
X94127000Y-49127000D01*
X94127000Y-51976250D01*
X94285750Y-52135000D01*
X94500000Y-52138072D01*
X94624482Y-52125812D01*
X94744180Y-52089502D01*
X94854494Y-52030537D01*
X94951185Y-51951185D01*
X95030537Y-51854494D01*
X95089502Y-51744180D01*
X95123001Y-51633750D01*
X95123000Y-53929628D01*
X90929629Y-58123000D01*
X88367695Y-58123000D01*
X88270673Y-58058172D01*
X87974578Y-57935525D01*
X87660245Y-57873000D01*
X87339755Y-57873000D01*
X87025422Y-57935525D01*
X86729327Y-58058172D01*
X86462848Y-58236227D01*
X86236227Y-58462848D01*
X86058172Y-58729327D01*
X85935525Y-59025422D01*
X85873000Y-59339755D01*
X85873000Y-59660245D01*
X85935525Y-59974578D01*
X86058172Y-60270673D01*
X86236227Y-60537152D01*
X86462848Y-60763773D01*
X86729327Y-60941828D01*
X87025422Y-61064475D01*
X87339755Y-61127000D01*
X87660245Y-61127000D01*
X87974578Y-61064475D01*
X88270673Y-60941828D01*
X88367695Y-60877000D01*
X91432360Y-60877000D01*
X91500000Y-60883662D01*
X91769939Y-60857075D01*
X92029505Y-60778337D01*
X92268721Y-60650473D01*
X92478397Y-60478397D01*
X92521521Y-60425850D01*
X93669001Y-59278370D01*
X100249749Y-59278370D01*
X100249749Y-59721630D01*
X100336225Y-60156374D01*
X100505853Y-60565894D01*
X100752116Y-60934451D01*
X101065549Y-61247884D01*
X101434106Y-61494147D01*
X101843626Y-61663775D01*
X102278370Y-61750251D01*
X102721630Y-61750251D01*
X103156374Y-61663775D01*
X103565894Y-61494147D01*
X103934451Y-61247884D01*
X104247884Y-60934451D01*
X104494147Y-60565894D01*
X104663775Y-60156374D01*
X104750251Y-59721630D01*
X104750251Y-59278370D01*
X104663775Y-58843626D01*
X104494147Y-58434106D01*
X104247884Y-58065549D01*
X103934451Y-57752116D01*
X103565894Y-57505853D01*
X103156374Y-57336225D01*
X102721630Y-57249749D01*
X102278370Y-57249749D01*
X101843626Y-57336225D01*
X101434106Y-57505853D01*
X101065549Y-57752116D01*
X100752116Y-58065549D01*
X100505853Y-58434106D01*
X100336225Y-58843626D01*
X100249749Y-59278370D01*
X93669001Y-59278370D01*
X97425860Y-55521512D01*
X97478396Y-55478397D01*
X97650473Y-55268721D01*
X97778337Y-55029505D01*
X97857075Y-54769939D01*
X97877000Y-54567640D01*
X97877000Y-54567639D01*
X97883662Y-54500000D01*
X97877000Y-54432360D01*
X97877000Y-51633752D01*
X97910498Y-51744180D01*
X97969463Y-51854494D01*
X98048815Y-51951185D01*
X98145506Y-52030537D01*
X98255820Y-52089502D01*
X98375518Y-52125812D01*
X98500000Y-52138072D01*
X98714250Y-52135000D01*
X98873000Y-51976250D01*
X98873000Y-49127000D01*
X99127000Y-49127000D01*
X99127000Y-51976250D01*
X99285750Y-52135000D01*
X99500000Y-52138072D01*
X99624482Y-52125812D01*
X99744180Y-52089502D01*
X99854494Y-52030537D01*
X99951185Y-51951185D01*
X100030537Y-51854494D01*
X100089502Y-51744180D01*
X100125812Y-51624482D01*
X100138072Y-51500000D01*
X100135000Y-49285750D01*
X99976250Y-49127000D01*
X99127000Y-49127000D01*
X98873000Y-49127000D01*
X98853000Y-49127000D01*
X98853000Y-48873000D01*
X98873000Y-48873000D01*
X98873000Y-48853000D01*
X99127000Y-48853000D01*
X99127000Y-48873000D01*
X99976250Y-48873000D01*
X100135000Y-48714250D01*
X100137815Y-46685000D01*
X106815000Y-46685000D01*
X106815001Y-66309269D01*
X48185000Y-65820685D01*
X48185000Y-59278370D01*
X50249749Y-59278370D01*
X50249749Y-59721630D01*
X50336225Y-60156374D01*
X50505853Y-60565894D01*
X50752116Y-60934451D01*
X51065549Y-61247884D01*
X51434106Y-61494147D01*
X51843626Y-61663775D01*
X52278370Y-61750251D01*
X52721630Y-61750251D01*
X53156374Y-61663775D01*
X53565894Y-61494147D01*
X53934451Y-61247884D01*
X54247884Y-60934451D01*
X54494147Y-60565894D01*
X54663775Y-60156374D01*
X54750251Y-59721630D01*
X54750251Y-59278370D01*
X54663775Y-58843626D01*
X54494147Y-58434106D01*
X54247884Y-58065549D01*
X53934451Y-57752116D01*
X53565894Y-57505853D01*
X53156374Y-57336225D01*
X52721630Y-57249749D01*
X52278370Y-57249749D01*
X51843626Y-57336225D01*
X51434106Y-57505853D01*
X51065549Y-57752116D01*
X50752116Y-58065549D01*
X50505853Y-58434106D01*
X50336225Y-58843626D01*
X50249749Y-59278370D01*
X48185000Y-59278370D01*
X48185000Y-51500000D01*
X54861928Y-51500000D01*
X54874188Y-51624482D01*
X54910498Y-51744180D01*
X54969463Y-51854494D01*
X55048815Y-51951185D01*
X55145506Y-52030537D01*
X55255820Y-52089502D01*
X55375518Y-52125812D01*
X55500000Y-52138072D01*
X55714250Y-52135000D01*
X55873000Y-51976250D01*
X55873000Y-49127000D01*
X55023750Y-49127000D01*
X54865000Y-49285750D01*
X54861928Y-51500000D01*
X48185000Y-51500000D01*
X48185000Y-46685000D01*
X54862185Y-46685000D01*
X54865000Y-48714250D01*
G37*
X54865000Y-48714250D02*
X55023750Y-48873000D01*
X55873000Y-48873000D01*
X55873000Y-48853000D01*
X56127000Y-48853000D01*
X56127000Y-48873000D01*
X56147000Y-48873000D01*
X56147000Y-49127000D01*
X56127000Y-49127000D01*
X56127000Y-51976250D01*
X56285750Y-52135000D01*
X56500000Y-52138072D01*
X56624482Y-52125812D01*
X56744180Y-52089502D01*
X56854494Y-52030537D01*
X56951185Y-51951185D01*
X57030537Y-51854494D01*
X57089502Y-51744180D01*
X57123001Y-51633750D01*
X57123000Y-54432360D01*
X57116338Y-54500000D01*
X57142925Y-54769939D01*
X57221663Y-55029504D01*
X57349527Y-55268720D01*
X57521603Y-55478396D01*
X57574146Y-55521517D01*
X62478483Y-60425855D01*
X62521603Y-60478397D01*
X62731279Y-60650473D01*
X62943248Y-60763773D01*
X62970495Y-60778337D01*
X63230060Y-60857075D01*
X63500000Y-60883662D01*
X63567640Y-60877000D01*
X66632305Y-60877000D01*
X66729327Y-60941828D01*
X67025422Y-61064475D01*
X67339755Y-61127000D01*
X67660245Y-61127000D01*
X67974578Y-61064475D01*
X68270673Y-60941828D01*
X68537152Y-60763773D01*
X68763773Y-60537152D01*
X68941828Y-60270673D01*
X69064475Y-59974578D01*
X69127000Y-59660245D01*
X69127000Y-59339755D01*
X69064475Y-59025422D01*
X68941828Y-58729327D01*
X68763773Y-58462848D01*
X68537152Y-58236227D01*
X68270673Y-58058172D01*
X67974578Y-57935525D01*
X67660245Y-57873000D01*
X67339755Y-57873000D01*
X67025422Y-57935525D01*
X66729327Y-58058172D01*
X66632305Y-58123000D01*
X64070372Y-58123000D01*
X59877000Y-53929629D01*
X59877000Y-51633752D01*
X59910498Y-51744180D01*
X59969463Y-51854494D01*
X60048815Y-51951185D01*
X60145506Y-52030537D01*
X60255820Y-52089502D01*
X60375518Y-52125812D01*
X60500000Y-52138072D01*
X60714250Y-52135000D01*
X60873000Y-51976250D01*
X60873000Y-49127000D01*
X61127000Y-49127000D01*
X61127000Y-51976250D01*
X61285750Y-52135000D01*
X61500000Y-52138072D01*
X61624482Y-52125812D01*
X61744180Y-52089502D01*
X61854494Y-52030537D01*
X61951185Y-51951185D01*
X62030537Y-51854494D01*
X62089502Y-51744180D01*
X62125812Y-51624482D01*
X62138072Y-51500000D01*
X67861928Y-51500000D01*
X67874188Y-51624482D01*
X67910498Y-51744180D01*
X67969463Y-51854494D01*
X68048815Y-51951185D01*
X68145506Y-52030537D01*
X68255820Y-52089502D01*
X68375518Y-52125812D01*
X68500000Y-52138072D01*
X68714250Y-52135000D01*
X68873000Y-51976250D01*
X68873000Y-49127000D01*
X68023750Y-49127000D01*
X67865000Y-49285750D01*
X67861928Y-51500000D01*
X62138072Y-51500000D01*
X62135000Y-49285750D01*
X61976250Y-49127000D01*
X61127000Y-49127000D01*
X60873000Y-49127000D01*
X60853000Y-49127000D01*
X60853000Y-48873000D01*
X60873000Y-48873000D01*
X60873000Y-48853000D01*
X61127000Y-48853000D01*
X61127000Y-48873000D01*
X61976250Y-48873000D01*
X62135000Y-48714250D01*
X62137815Y-46685000D01*
X67862185Y-46685000D01*
X67865000Y-48714250D01*
X68023750Y-48873000D01*
X68873000Y-48873000D01*
X68873000Y-48853000D01*
X69127000Y-48853000D01*
X69127000Y-48873000D01*
X69147000Y-48873000D01*
X69147000Y-49127000D01*
X69127000Y-49127000D01*
X69127000Y-51976250D01*
X69285750Y-52135000D01*
X69500000Y-52138072D01*
X69624482Y-52125812D01*
X69744180Y-52089502D01*
X69854494Y-52030537D01*
X69951185Y-51951185D01*
X70030537Y-51854494D01*
X70089502Y-51744180D01*
X70123001Y-51633750D01*
X70123000Y-58632305D01*
X70058172Y-58729327D01*
X69935525Y-59025422D01*
X69873000Y-59339755D01*
X69873000Y-59660245D01*
X69935525Y-59974578D01*
X70058172Y-60270673D01*
X70236227Y-60537152D01*
X70462848Y-60763773D01*
X70729327Y-60941828D01*
X71025422Y-61064475D01*
X71339755Y-61127000D01*
X71660245Y-61127000D01*
X71974578Y-61064475D01*
X72270673Y-60941828D01*
X72537152Y-60763773D01*
X72763773Y-60537152D01*
X72941828Y-60270673D01*
X73064475Y-59974578D01*
X73127000Y-59660245D01*
X73127000Y-59339755D01*
X73087127Y-59139297D01*
X73837720Y-59139297D01*
X73837720Y-59860703D01*
X73978460Y-60568248D01*
X74254530Y-61234740D01*
X74655322Y-61834567D01*
X75165433Y-62344678D01*
X75765260Y-62745470D01*
X76431752Y-63021540D01*
X77139297Y-63162280D01*
X77860703Y-63162280D01*
X78568248Y-63021540D01*
X79234740Y-62745470D01*
X79834567Y-62344678D01*
X80344678Y-61834567D01*
X80745470Y-61234740D01*
X81021540Y-60568248D01*
X81162280Y-59860703D01*
X81162280Y-59139297D01*
X81021540Y-58431752D01*
X80745470Y-57765260D01*
X80344678Y-57165433D01*
X79834567Y-56655322D01*
X79234740Y-56254530D01*
X78568248Y-55978460D01*
X77860703Y-55837720D01*
X77139297Y-55837720D01*
X76431752Y-55978460D01*
X75765260Y-56254530D01*
X75165433Y-56655322D01*
X74655322Y-57165433D01*
X74254530Y-57765260D01*
X73978460Y-58431752D01*
X73837720Y-59139297D01*
X73087127Y-59139297D01*
X73064475Y-59025422D01*
X72941828Y-58729327D01*
X72877000Y-58632305D01*
X72877000Y-51633752D01*
X72910498Y-51744180D01*
X72969463Y-51854494D01*
X73048815Y-51951185D01*
X73145506Y-52030537D01*
X73255820Y-52089502D01*
X73375518Y-52125812D01*
X73500000Y-52138072D01*
X73714250Y-52135000D01*
X73873000Y-51976250D01*
X73873000Y-49127000D01*
X74127000Y-49127000D01*
X74127000Y-51976250D01*
X74285750Y-52135000D01*
X74500000Y-52138072D01*
X74624482Y-52125812D01*
X74744180Y-52089502D01*
X74854494Y-52030537D01*
X74951185Y-51951185D01*
X75030537Y-51854494D01*
X75089502Y-51744180D01*
X75125812Y-51624482D01*
X75138072Y-51500000D01*
X79861928Y-51500000D01*
X79874188Y-51624482D01*
X79910498Y-51744180D01*
X79969463Y-51854494D01*
X80048815Y-51951185D01*
X80145506Y-52030537D01*
X80255820Y-52089502D01*
X80375518Y-52125812D01*
X80500000Y-52138072D01*
X80714250Y-52135000D01*
X80873000Y-51976250D01*
X80873000Y-49127000D01*
X80023750Y-49127000D01*
X79865000Y-49285750D01*
X79861928Y-51500000D01*
X75138072Y-51500000D01*
X75135000Y-49285750D01*
X74976250Y-49127000D01*
X74127000Y-49127000D01*
X73873000Y-49127000D01*
X73853000Y-49127000D01*
X73853000Y-48873000D01*
X73873000Y-48873000D01*
X73873000Y-48853000D01*
X74127000Y-48853000D01*
X74127000Y-48873000D01*
X74976250Y-48873000D01*
X75135000Y-48714250D01*
X75137815Y-46685000D01*
X79862185Y-46685000D01*
X79865000Y-48714250D01*
X80023750Y-48873000D01*
X80873000Y-48873000D01*
X80873000Y-48853000D01*
X81127000Y-48853000D01*
X81127000Y-48873000D01*
X81147000Y-48873000D01*
X81147000Y-49127000D01*
X81127000Y-49127000D01*
X81127000Y-51976250D01*
X81285750Y-52135000D01*
X81500000Y-52138072D01*
X81624482Y-52125812D01*
X81744180Y-52089502D01*
X81854494Y-52030537D01*
X81951185Y-51951185D01*
X82030537Y-51854494D01*
X82089502Y-51744180D01*
X82123001Y-51633750D01*
X82123000Y-58632305D01*
X82058172Y-58729327D01*
X81935525Y-59025422D01*
X81873000Y-59339755D01*
X81873000Y-59660245D01*
X81935525Y-59974578D01*
X82058172Y-60270673D01*
X82236227Y-60537152D01*
X82462848Y-60763773D01*
X82729327Y-60941828D01*
X83025422Y-61064475D01*
X83339755Y-61127000D01*
X83660245Y-61127000D01*
X83974578Y-61064475D01*
X84270673Y-60941828D01*
X84537152Y-60763773D01*
X84763773Y-60537152D01*
X84941828Y-60270673D01*
X85064475Y-59974578D01*
X85127000Y-59660245D01*
X85127000Y-59339755D01*
X85064475Y-59025422D01*
X84941828Y-58729327D01*
X84877000Y-58632305D01*
X84877000Y-51633752D01*
X84910498Y-51744180D01*
X84969463Y-51854494D01*
X85048815Y-51951185D01*
X85145506Y-52030537D01*
X85255820Y-52089502D01*
X85375518Y-52125812D01*
X85500000Y-52138072D01*
X85714250Y-52135000D01*
X85873000Y-51976250D01*
X85873000Y-49127000D01*
X86127000Y-49127000D01*
X86127000Y-51976250D01*
X86285750Y-52135000D01*
X86500000Y-52138072D01*
X86624482Y-52125812D01*
X86744180Y-52089502D01*
X86854494Y-52030537D01*
X86951185Y-51951185D01*
X87030537Y-51854494D01*
X87089502Y-51744180D01*
X87125812Y-51624482D01*
X87138072Y-51500000D01*
X92861928Y-51500000D01*
X92874188Y-51624482D01*
X92910498Y-51744180D01*
X92969463Y-51854494D01*
X93048815Y-51951185D01*
X93145506Y-52030537D01*
X93255820Y-52089502D01*
X93375518Y-52125812D01*
X93500000Y-52138072D01*
X93714250Y-52135000D01*
X93873000Y-51976250D01*
X93873000Y-49127000D01*
X93023750Y-49127000D01*
X92865000Y-49285750D01*
X92861928Y-51500000D01*
X87138072Y-51500000D01*
X87135000Y-49285750D01*
X86976250Y-49127000D01*
X86127000Y-49127000D01*
X85873000Y-49127000D01*
X85853000Y-49127000D01*
X85853000Y-48873000D01*
X85873000Y-48873000D01*
X85873000Y-48853000D01*
X86127000Y-48853000D01*
X86127000Y-48873000D01*
X86976250Y-48873000D01*
X87135000Y-48714250D01*
X87137815Y-46685000D01*
X92862185Y-46685000D01*
X92865000Y-48714250D01*
X93023750Y-48873000D01*
X93873000Y-48873000D01*
X93873000Y-48853000D01*
X94127000Y-48853000D01*
X94127000Y-48873000D01*
X94147000Y-48873000D01*
X94147000Y-49127000D01*
X94127000Y-49127000D01*
X94127000Y-51976250D01*
X94285750Y-52135000D01*
X94500000Y-52138072D01*
X94624482Y-52125812D01*
X94744180Y-52089502D01*
X94854494Y-52030537D01*
X94951185Y-51951185D01*
X95030537Y-51854494D01*
X95089502Y-51744180D01*
X95123001Y-51633750D01*
X95123000Y-53929628D01*
X90929629Y-58123000D01*
X88367695Y-58123000D01*
X88270673Y-58058172D01*
X87974578Y-57935525D01*
X87660245Y-57873000D01*
X87339755Y-57873000D01*
X87025422Y-57935525D01*
X86729327Y-58058172D01*
X86462848Y-58236227D01*
X86236227Y-58462848D01*
X86058172Y-58729327D01*
X85935525Y-59025422D01*
X85873000Y-59339755D01*
X85873000Y-59660245D01*
X85935525Y-59974578D01*
X86058172Y-60270673D01*
X86236227Y-60537152D01*
X86462848Y-60763773D01*
X86729327Y-60941828D01*
X87025422Y-61064475D01*
X87339755Y-61127000D01*
X87660245Y-61127000D01*
X87974578Y-61064475D01*
X88270673Y-60941828D01*
X88367695Y-60877000D01*
X91432360Y-60877000D01*
X91500000Y-60883662D01*
X91769939Y-60857075D01*
X92029505Y-60778337D01*
X92268721Y-60650473D01*
X92478397Y-60478397D01*
X92521521Y-60425850D01*
X93669001Y-59278370D01*
X100249749Y-59278370D01*
X100249749Y-59721630D01*
X100336225Y-60156374D01*
X100505853Y-60565894D01*
X100752116Y-60934451D01*
X101065549Y-61247884D01*
X101434106Y-61494147D01*
X101843626Y-61663775D01*
X102278370Y-61750251D01*
X102721630Y-61750251D01*
X103156374Y-61663775D01*
X103565894Y-61494147D01*
X103934451Y-61247884D01*
X104247884Y-60934451D01*
X104494147Y-60565894D01*
X104663775Y-60156374D01*
X104750251Y-59721630D01*
X104750251Y-59278370D01*
X104663775Y-58843626D01*
X104494147Y-58434106D01*
X104247884Y-58065549D01*
X103934451Y-57752116D01*
X103565894Y-57505853D01*
X103156374Y-57336225D01*
X102721630Y-57249749D01*
X102278370Y-57249749D01*
X101843626Y-57336225D01*
X101434106Y-57505853D01*
X101065549Y-57752116D01*
X100752116Y-58065549D01*
X100505853Y-58434106D01*
X100336225Y-58843626D01*
X100249749Y-59278370D01*
X93669001Y-59278370D01*
X97425860Y-55521512D01*
X97478396Y-55478397D01*
X97650473Y-55268721D01*
X97778337Y-55029505D01*
X97857075Y-54769939D01*
X97877000Y-54567640D01*
X97877000Y-54567639D01*
X97883662Y-54500000D01*
X97877000Y-54432360D01*
X97877000Y-51633752D01*
X97910498Y-51744180D01*
X97969463Y-51854494D01*
X98048815Y-51951185D01*
X98145506Y-52030537D01*
X98255820Y-52089502D01*
X98375518Y-52125812D01*
X98500000Y-52138072D01*
X98714250Y-52135000D01*
X98873000Y-51976250D01*
X98873000Y-49127000D01*
X99127000Y-49127000D01*
X99127000Y-51976250D01*
X99285750Y-52135000D01*
X99500000Y-52138072D01*
X99624482Y-52125812D01*
X99744180Y-52089502D01*
X99854494Y-52030537D01*
X99951185Y-51951185D01*
X100030537Y-51854494D01*
X100089502Y-51744180D01*
X100125812Y-51624482D01*
X100138072Y-51500000D01*
X100135000Y-49285750D01*
X99976250Y-49127000D01*
X99127000Y-49127000D01*
X98873000Y-49127000D01*
X98853000Y-49127000D01*
X98853000Y-48873000D01*
X98873000Y-48873000D01*
X98873000Y-48853000D01*
X99127000Y-48853000D01*
X99127000Y-48873000D01*
X99976250Y-48873000D01*
X100135000Y-48714250D01*
X100137815Y-46685000D01*
X106815000Y-46685000D01*
X106815001Y-66309269D01*
X48185000Y-65820685D01*
X48185000Y-59278370D01*
X50249749Y-59278370D01*
X50249749Y-59721630D01*
X50336225Y-60156374D01*
X50505853Y-60565894D01*
X50752116Y-60934451D01*
X51065549Y-61247884D01*
X51434106Y-61494147D01*
X51843626Y-61663775D01*
X52278370Y-61750251D01*
X52721630Y-61750251D01*
X53156374Y-61663775D01*
X53565894Y-61494147D01*
X53934451Y-61247884D01*
X54247884Y-60934451D01*
X54494147Y-60565894D01*
X54663775Y-60156374D01*
X54750251Y-59721630D01*
X54750251Y-59278370D01*
X54663775Y-58843626D01*
X54494147Y-58434106D01*
X54247884Y-58065549D01*
X53934451Y-57752116D01*
X53565894Y-57505853D01*
X53156374Y-57336225D01*
X52721630Y-57249749D01*
X52278370Y-57249749D01*
X51843626Y-57336225D01*
X51434106Y-57505853D01*
X51065549Y-57752116D01*
X50752116Y-58065549D01*
X50505853Y-58434106D01*
X50336225Y-58843626D01*
X50249749Y-59278370D01*
X48185000Y-59278370D01*
X48185000Y-51500000D01*
X54861928Y-51500000D01*
X54874188Y-51624482D01*
X54910498Y-51744180D01*
X54969463Y-51854494D01*
X55048815Y-51951185D01*
X55145506Y-52030537D01*
X55255820Y-52089502D01*
X55375518Y-52125812D01*
X55500000Y-52138072D01*
X55714250Y-52135000D01*
X55873000Y-51976250D01*
X55873000Y-49127000D01*
X55023750Y-49127000D01*
X54865000Y-49285750D01*
X54861928Y-51500000D01*
X48185000Y-51500000D01*
X48185000Y-46685000D01*
X54862185Y-46685000D01*
X54865000Y-48714250D01*
%TD*%
M02*
