G04 #@! TF.GenerationSoftware,KiCad,Pcbnew,5.1.5+dfsg1-2build2*
G04 #@! TF.CreationDate,2022-04-03T17:07:16-07:00*
G04 #@! TF.ProjectId,kelvin-probe,6b656c76-696e-42d7-9072-6f62652e6b69,rev?*
G04 #@! TF.SameCoordinates,Original*
G04 #@! TF.FileFunction,Copper,L1,Top*
G04 #@! TF.FilePolarity,Positive*
%FSLAX46Y46*%
G04 Gerber Fmt 4.6, Leading zero omitted, Abs format (unit mm)*
G04 Created by KiCad (PCBNEW 5.1.5+dfsg1-2build2) date 2022-04-03 17:07:16*
%MOMM*%
%LPD*%
G04 APERTURE LIST*
%ADD10R,1.000000X5.000000*%
%ADD11C,1.500000*%
%ADD12C,1.000000*%
%ADD13C,0.254000*%
G04 APERTURE END LIST*
D10*
X147000000Y-78000000D03*
X149500000Y-78000000D03*
X152000000Y-78000000D03*
X162000000Y-78000000D03*
X164500000Y-78000000D03*
X167000000Y-78000000D03*
X132000000Y-78000000D03*
X134500000Y-78000000D03*
X137000000Y-78000000D03*
X117000000Y-78000000D03*
X119500000Y-78000000D03*
X122000000Y-78000000D03*
D11*
X132000000Y-86000000D03*
X137000000Y-86000000D03*
X152000000Y-86000000D03*
X147000000Y-86000000D03*
D12*
X119500000Y-81500000D02*
X119500000Y-78000000D01*
X124000000Y-86000000D02*
X119500000Y-81500000D01*
X132000000Y-86000000D02*
X124000000Y-86000000D01*
X134500000Y-83500000D02*
X134500000Y-78000000D01*
X137000000Y-86000000D02*
X134500000Y-83500000D01*
X164500000Y-81500000D02*
X164500000Y-78000000D01*
X160000000Y-86000000D02*
X164500000Y-81500000D01*
X152000000Y-86000000D02*
X160000000Y-86000000D01*
X149500000Y-83500000D02*
X149500000Y-78000000D01*
X147000000Y-86000000D02*
X149500000Y-83500000D01*
D13*
G36*
X115865000Y-77714250D02*
G01*
X116023750Y-77873000D01*
X116873000Y-77873000D01*
X116873000Y-77853000D01*
X117127000Y-77853000D01*
X117127000Y-77873000D01*
X117147000Y-77873000D01*
X117147000Y-78127000D01*
X117127000Y-78127000D01*
X117127000Y-80976250D01*
X117285750Y-81135000D01*
X117500000Y-81138072D01*
X117624482Y-81125812D01*
X117744180Y-81089502D01*
X117854494Y-81030537D01*
X117951185Y-80951185D01*
X118030537Y-80854494D01*
X118089502Y-80744180D01*
X118123000Y-80633752D01*
X118123000Y-81432360D01*
X118116338Y-81500000D01*
X118142925Y-81769939D01*
X118221663Y-82029504D01*
X118349527Y-82268720D01*
X118521603Y-82478396D01*
X118574146Y-82521517D01*
X122978483Y-86925855D01*
X123021603Y-86978397D01*
X123231279Y-87150473D01*
X123443248Y-87263773D01*
X123470495Y-87278337D01*
X123730060Y-87357075D01*
X123999999Y-87383662D01*
X124067639Y-87377000D01*
X131132305Y-87377000D01*
X131229327Y-87441828D01*
X131525422Y-87564475D01*
X131839755Y-87627000D01*
X132160245Y-87627000D01*
X132474578Y-87564475D01*
X132770673Y-87441828D01*
X133037152Y-87263773D01*
X133263773Y-87037152D01*
X133441828Y-86770673D01*
X133564475Y-86474578D01*
X133627000Y-86160245D01*
X133627000Y-85839755D01*
X133564475Y-85525422D01*
X133441828Y-85229327D01*
X133263773Y-84962848D01*
X133037152Y-84736227D01*
X132770673Y-84558172D01*
X132474578Y-84435525D01*
X132160245Y-84373000D01*
X131839755Y-84373000D01*
X131525422Y-84435525D01*
X131229327Y-84558172D01*
X131132305Y-84623000D01*
X124570372Y-84623000D01*
X120877000Y-80929629D01*
X120877000Y-80633752D01*
X120910498Y-80744180D01*
X120969463Y-80854494D01*
X121048815Y-80951185D01*
X121145506Y-81030537D01*
X121255820Y-81089502D01*
X121375518Y-81125812D01*
X121500000Y-81138072D01*
X121714250Y-81135000D01*
X121873000Y-80976250D01*
X121873000Y-78127000D01*
X122127000Y-78127000D01*
X122127000Y-80976250D01*
X122285750Y-81135000D01*
X122500000Y-81138072D01*
X122624482Y-81125812D01*
X122744180Y-81089502D01*
X122854494Y-81030537D01*
X122951185Y-80951185D01*
X123030537Y-80854494D01*
X123089502Y-80744180D01*
X123125812Y-80624482D01*
X123138072Y-80500000D01*
X130861928Y-80500000D01*
X130874188Y-80624482D01*
X130910498Y-80744180D01*
X130969463Y-80854494D01*
X131048815Y-80951185D01*
X131145506Y-81030537D01*
X131255820Y-81089502D01*
X131375518Y-81125812D01*
X131500000Y-81138072D01*
X131714250Y-81135000D01*
X131873000Y-80976250D01*
X131873000Y-78127000D01*
X131023750Y-78127000D01*
X130865000Y-78285750D01*
X130861928Y-80500000D01*
X123138072Y-80500000D01*
X123135000Y-78285750D01*
X122976250Y-78127000D01*
X122127000Y-78127000D01*
X121873000Y-78127000D01*
X121853000Y-78127000D01*
X121853000Y-77873000D01*
X121873000Y-77873000D01*
X121873000Y-77853000D01*
X122127000Y-77853000D01*
X122127000Y-77873000D01*
X122976250Y-77873000D01*
X123135000Y-77714250D01*
X123137156Y-76160000D01*
X130862844Y-76160000D01*
X130865000Y-77714250D01*
X131023750Y-77873000D01*
X131873000Y-77873000D01*
X131873000Y-77853000D01*
X132127000Y-77853000D01*
X132127000Y-77873000D01*
X132147000Y-77873000D01*
X132147000Y-78127000D01*
X132127000Y-78127000D01*
X132127000Y-80976250D01*
X132285750Y-81135000D01*
X132500000Y-81138072D01*
X132624482Y-81125812D01*
X132744180Y-81089502D01*
X132854494Y-81030537D01*
X132951185Y-80951185D01*
X133030537Y-80854494D01*
X133089502Y-80744180D01*
X133123001Y-80633752D01*
X133123000Y-83432360D01*
X133116338Y-83500000D01*
X133142925Y-83769939D01*
X133153534Y-83804911D01*
X133221663Y-84029504D01*
X133349527Y-84268720D01*
X133521603Y-84478396D01*
X133574146Y-84521517D01*
X135412760Y-86360132D01*
X135435525Y-86474578D01*
X135558172Y-86770673D01*
X135736227Y-87037152D01*
X135962848Y-87263773D01*
X136229327Y-87441828D01*
X136525422Y-87564475D01*
X136839755Y-87627000D01*
X137160245Y-87627000D01*
X137474578Y-87564475D01*
X137770673Y-87441828D01*
X138037152Y-87263773D01*
X138263773Y-87037152D01*
X138441828Y-86770673D01*
X138450888Y-86748800D01*
X138512383Y-87057957D01*
X138785794Y-87718029D01*
X139182725Y-88312078D01*
X139687922Y-88817275D01*
X140281971Y-89214206D01*
X140942043Y-89487617D01*
X141642772Y-89627000D01*
X142357228Y-89627000D01*
X143057957Y-89487617D01*
X143718029Y-89214206D01*
X144312078Y-88817275D01*
X144817275Y-88312078D01*
X145214206Y-87718029D01*
X145487617Y-87057957D01*
X145549112Y-86748800D01*
X145558172Y-86770673D01*
X145736227Y-87037152D01*
X145962848Y-87263773D01*
X146229327Y-87441828D01*
X146525422Y-87564475D01*
X146839755Y-87627000D01*
X147160245Y-87627000D01*
X147474578Y-87564475D01*
X147770673Y-87441828D01*
X148037152Y-87263773D01*
X148263773Y-87037152D01*
X148441828Y-86770673D01*
X148564475Y-86474578D01*
X148587240Y-86360131D01*
X150425860Y-84521512D01*
X150478396Y-84478397D01*
X150525497Y-84421005D01*
X150650472Y-84268722D01*
X150650474Y-84268720D01*
X150778337Y-84029505D01*
X150778337Y-84029504D01*
X150857075Y-83769940D01*
X150883662Y-83500000D01*
X150877000Y-83432360D01*
X150877000Y-80633752D01*
X150910498Y-80744180D01*
X150969463Y-80854494D01*
X151048815Y-80951185D01*
X151145506Y-81030537D01*
X151255820Y-81089502D01*
X151375518Y-81125812D01*
X151500000Y-81138072D01*
X151714250Y-81135000D01*
X151873000Y-80976250D01*
X151873000Y-78127000D01*
X152127000Y-78127000D01*
X152127000Y-80976250D01*
X152285750Y-81135000D01*
X152500000Y-81138072D01*
X152624482Y-81125812D01*
X152744180Y-81089502D01*
X152854494Y-81030537D01*
X152951185Y-80951185D01*
X153030537Y-80854494D01*
X153089502Y-80744180D01*
X153125812Y-80624482D01*
X153138072Y-80500000D01*
X160861928Y-80500000D01*
X160874188Y-80624482D01*
X160910498Y-80744180D01*
X160969463Y-80854494D01*
X161048815Y-80951185D01*
X161145506Y-81030537D01*
X161255820Y-81089502D01*
X161375518Y-81125812D01*
X161500000Y-81138072D01*
X161714250Y-81135000D01*
X161873000Y-80976250D01*
X161873000Y-78127000D01*
X161023750Y-78127000D01*
X160865000Y-78285750D01*
X160861928Y-80500000D01*
X153138072Y-80500000D01*
X153135000Y-78285750D01*
X152976250Y-78127000D01*
X152127000Y-78127000D01*
X151873000Y-78127000D01*
X151853000Y-78127000D01*
X151853000Y-77873000D01*
X151873000Y-77873000D01*
X151873000Y-77853000D01*
X152127000Y-77853000D01*
X152127000Y-77873000D01*
X152976250Y-77873000D01*
X153135000Y-77714250D01*
X153137156Y-76160000D01*
X160862844Y-76160000D01*
X160865000Y-77714250D01*
X161023750Y-77873000D01*
X161873000Y-77873000D01*
X161873000Y-77853000D01*
X162127000Y-77853000D01*
X162127000Y-77873000D01*
X162147000Y-77873000D01*
X162147000Y-78127000D01*
X162127000Y-78127000D01*
X162127000Y-80976250D01*
X162285750Y-81135000D01*
X162500000Y-81138072D01*
X162624482Y-81125812D01*
X162744180Y-81089502D01*
X162854494Y-81030537D01*
X162951185Y-80951185D01*
X163030537Y-80854494D01*
X163089502Y-80744180D01*
X163123000Y-80633752D01*
X163123000Y-80929628D01*
X159429629Y-84623000D01*
X152867695Y-84623000D01*
X152770673Y-84558172D01*
X152474578Y-84435525D01*
X152160245Y-84373000D01*
X151839755Y-84373000D01*
X151525422Y-84435525D01*
X151229327Y-84558172D01*
X150962848Y-84736227D01*
X150736227Y-84962848D01*
X150558172Y-85229327D01*
X150435525Y-85525422D01*
X150373000Y-85839755D01*
X150373000Y-86160245D01*
X150435525Y-86474578D01*
X150558172Y-86770673D01*
X150736227Y-87037152D01*
X150962848Y-87263773D01*
X151229327Y-87441828D01*
X151525422Y-87564475D01*
X151839755Y-87627000D01*
X152160245Y-87627000D01*
X152474578Y-87564475D01*
X152770673Y-87441828D01*
X152867695Y-87377000D01*
X159932360Y-87377000D01*
X160000000Y-87383662D01*
X160269939Y-87357075D01*
X160529505Y-87278337D01*
X160768721Y-87150473D01*
X160978397Y-86978397D01*
X161021521Y-86925850D01*
X162191334Y-85756037D01*
X169523000Y-85756037D01*
X169523000Y-86243963D01*
X169618190Y-86722514D01*
X169804911Y-87173299D01*
X170075989Y-87578995D01*
X170421005Y-87924011D01*
X170826701Y-88195089D01*
X171277486Y-88381810D01*
X171756037Y-88477000D01*
X172243963Y-88477000D01*
X172722514Y-88381810D01*
X173173299Y-88195089D01*
X173578995Y-87924011D01*
X173924011Y-87578995D01*
X174195089Y-87173299D01*
X174381810Y-86722514D01*
X174477000Y-86243963D01*
X174477000Y-85756037D01*
X174381810Y-85277486D01*
X174195089Y-84826701D01*
X173924011Y-84421005D01*
X173578995Y-84075989D01*
X173173299Y-83804911D01*
X172722514Y-83618190D01*
X172243963Y-83523000D01*
X171756037Y-83523000D01*
X171277486Y-83618190D01*
X170826701Y-83804911D01*
X170421005Y-84075989D01*
X170075989Y-84421005D01*
X169804911Y-84826701D01*
X169618190Y-85277486D01*
X169523000Y-85756037D01*
X162191334Y-85756037D01*
X165425860Y-82521512D01*
X165478396Y-82478397D01*
X165650473Y-82268721D01*
X165778337Y-82029505D01*
X165857075Y-81769939D01*
X165877000Y-81567640D01*
X165877000Y-81567639D01*
X165883662Y-81500001D01*
X165877000Y-81432361D01*
X165877000Y-80633752D01*
X165910498Y-80744180D01*
X165969463Y-80854494D01*
X166048815Y-80951185D01*
X166145506Y-81030537D01*
X166255820Y-81089502D01*
X166375518Y-81125812D01*
X166500000Y-81138072D01*
X166714250Y-81135000D01*
X166873000Y-80976250D01*
X166873000Y-78127000D01*
X167127000Y-78127000D01*
X167127000Y-80976250D01*
X167285750Y-81135000D01*
X167500000Y-81138072D01*
X167624482Y-81125812D01*
X167744180Y-81089502D01*
X167854494Y-81030537D01*
X167951185Y-80951185D01*
X168030537Y-80854494D01*
X168089502Y-80744180D01*
X168125812Y-80624482D01*
X168138072Y-80500000D01*
X168135000Y-78285750D01*
X167976250Y-78127000D01*
X167127000Y-78127000D01*
X166873000Y-78127000D01*
X166853000Y-78127000D01*
X166853000Y-77873000D01*
X166873000Y-77873000D01*
X166873000Y-77853000D01*
X167127000Y-77853000D01*
X167127000Y-77873000D01*
X167976250Y-77873000D01*
X168135000Y-77714250D01*
X168137156Y-76160000D01*
X177340000Y-76160000D01*
X177340001Y-94340000D01*
X106660000Y-94340000D01*
X106660000Y-85756037D01*
X109523000Y-85756037D01*
X109523000Y-86243963D01*
X109618190Y-86722514D01*
X109804911Y-87173299D01*
X110075989Y-87578995D01*
X110421005Y-87924011D01*
X110826701Y-88195089D01*
X111277486Y-88381810D01*
X111756037Y-88477000D01*
X112243963Y-88477000D01*
X112722514Y-88381810D01*
X113173299Y-88195089D01*
X113578995Y-87924011D01*
X113924011Y-87578995D01*
X114195089Y-87173299D01*
X114381810Y-86722514D01*
X114477000Y-86243963D01*
X114477000Y-85756037D01*
X114381810Y-85277486D01*
X114195089Y-84826701D01*
X113924011Y-84421005D01*
X113578995Y-84075989D01*
X113173299Y-83804911D01*
X112722514Y-83618190D01*
X112243963Y-83523000D01*
X111756037Y-83523000D01*
X111277486Y-83618190D01*
X110826701Y-83804911D01*
X110421005Y-84075989D01*
X110075989Y-84421005D01*
X109804911Y-84826701D01*
X109618190Y-85277486D01*
X109523000Y-85756037D01*
X106660000Y-85756037D01*
X106660000Y-80500000D01*
X115861928Y-80500000D01*
X115874188Y-80624482D01*
X115910498Y-80744180D01*
X115969463Y-80854494D01*
X116048815Y-80951185D01*
X116145506Y-81030537D01*
X116255820Y-81089502D01*
X116375518Y-81125812D01*
X116500000Y-81138072D01*
X116714250Y-81135000D01*
X116873000Y-80976250D01*
X116873000Y-78127000D01*
X116023750Y-78127000D01*
X115865000Y-78285750D01*
X115861928Y-80500000D01*
X106660000Y-80500000D01*
X106660000Y-76160000D01*
X115862844Y-76160000D01*
X115865000Y-77714250D01*
G37*
X115865000Y-77714250D02*
X116023750Y-77873000D01*
X116873000Y-77873000D01*
X116873000Y-77853000D01*
X117127000Y-77853000D01*
X117127000Y-77873000D01*
X117147000Y-77873000D01*
X117147000Y-78127000D01*
X117127000Y-78127000D01*
X117127000Y-80976250D01*
X117285750Y-81135000D01*
X117500000Y-81138072D01*
X117624482Y-81125812D01*
X117744180Y-81089502D01*
X117854494Y-81030537D01*
X117951185Y-80951185D01*
X118030537Y-80854494D01*
X118089502Y-80744180D01*
X118123000Y-80633752D01*
X118123000Y-81432360D01*
X118116338Y-81500000D01*
X118142925Y-81769939D01*
X118221663Y-82029504D01*
X118349527Y-82268720D01*
X118521603Y-82478396D01*
X118574146Y-82521517D01*
X122978483Y-86925855D01*
X123021603Y-86978397D01*
X123231279Y-87150473D01*
X123443248Y-87263773D01*
X123470495Y-87278337D01*
X123730060Y-87357075D01*
X123999999Y-87383662D01*
X124067639Y-87377000D01*
X131132305Y-87377000D01*
X131229327Y-87441828D01*
X131525422Y-87564475D01*
X131839755Y-87627000D01*
X132160245Y-87627000D01*
X132474578Y-87564475D01*
X132770673Y-87441828D01*
X133037152Y-87263773D01*
X133263773Y-87037152D01*
X133441828Y-86770673D01*
X133564475Y-86474578D01*
X133627000Y-86160245D01*
X133627000Y-85839755D01*
X133564475Y-85525422D01*
X133441828Y-85229327D01*
X133263773Y-84962848D01*
X133037152Y-84736227D01*
X132770673Y-84558172D01*
X132474578Y-84435525D01*
X132160245Y-84373000D01*
X131839755Y-84373000D01*
X131525422Y-84435525D01*
X131229327Y-84558172D01*
X131132305Y-84623000D01*
X124570372Y-84623000D01*
X120877000Y-80929629D01*
X120877000Y-80633752D01*
X120910498Y-80744180D01*
X120969463Y-80854494D01*
X121048815Y-80951185D01*
X121145506Y-81030537D01*
X121255820Y-81089502D01*
X121375518Y-81125812D01*
X121500000Y-81138072D01*
X121714250Y-81135000D01*
X121873000Y-80976250D01*
X121873000Y-78127000D01*
X122127000Y-78127000D01*
X122127000Y-80976250D01*
X122285750Y-81135000D01*
X122500000Y-81138072D01*
X122624482Y-81125812D01*
X122744180Y-81089502D01*
X122854494Y-81030537D01*
X122951185Y-80951185D01*
X123030537Y-80854494D01*
X123089502Y-80744180D01*
X123125812Y-80624482D01*
X123138072Y-80500000D01*
X130861928Y-80500000D01*
X130874188Y-80624482D01*
X130910498Y-80744180D01*
X130969463Y-80854494D01*
X131048815Y-80951185D01*
X131145506Y-81030537D01*
X131255820Y-81089502D01*
X131375518Y-81125812D01*
X131500000Y-81138072D01*
X131714250Y-81135000D01*
X131873000Y-80976250D01*
X131873000Y-78127000D01*
X131023750Y-78127000D01*
X130865000Y-78285750D01*
X130861928Y-80500000D01*
X123138072Y-80500000D01*
X123135000Y-78285750D01*
X122976250Y-78127000D01*
X122127000Y-78127000D01*
X121873000Y-78127000D01*
X121853000Y-78127000D01*
X121853000Y-77873000D01*
X121873000Y-77873000D01*
X121873000Y-77853000D01*
X122127000Y-77853000D01*
X122127000Y-77873000D01*
X122976250Y-77873000D01*
X123135000Y-77714250D01*
X123137156Y-76160000D01*
X130862844Y-76160000D01*
X130865000Y-77714250D01*
X131023750Y-77873000D01*
X131873000Y-77873000D01*
X131873000Y-77853000D01*
X132127000Y-77853000D01*
X132127000Y-77873000D01*
X132147000Y-77873000D01*
X132147000Y-78127000D01*
X132127000Y-78127000D01*
X132127000Y-80976250D01*
X132285750Y-81135000D01*
X132500000Y-81138072D01*
X132624482Y-81125812D01*
X132744180Y-81089502D01*
X132854494Y-81030537D01*
X132951185Y-80951185D01*
X133030537Y-80854494D01*
X133089502Y-80744180D01*
X133123001Y-80633752D01*
X133123000Y-83432360D01*
X133116338Y-83500000D01*
X133142925Y-83769939D01*
X133153534Y-83804911D01*
X133221663Y-84029504D01*
X133349527Y-84268720D01*
X133521603Y-84478396D01*
X133574146Y-84521517D01*
X135412760Y-86360132D01*
X135435525Y-86474578D01*
X135558172Y-86770673D01*
X135736227Y-87037152D01*
X135962848Y-87263773D01*
X136229327Y-87441828D01*
X136525422Y-87564475D01*
X136839755Y-87627000D01*
X137160245Y-87627000D01*
X137474578Y-87564475D01*
X137770673Y-87441828D01*
X138037152Y-87263773D01*
X138263773Y-87037152D01*
X138441828Y-86770673D01*
X138450888Y-86748800D01*
X138512383Y-87057957D01*
X138785794Y-87718029D01*
X139182725Y-88312078D01*
X139687922Y-88817275D01*
X140281971Y-89214206D01*
X140942043Y-89487617D01*
X141642772Y-89627000D01*
X142357228Y-89627000D01*
X143057957Y-89487617D01*
X143718029Y-89214206D01*
X144312078Y-88817275D01*
X144817275Y-88312078D01*
X145214206Y-87718029D01*
X145487617Y-87057957D01*
X145549112Y-86748800D01*
X145558172Y-86770673D01*
X145736227Y-87037152D01*
X145962848Y-87263773D01*
X146229327Y-87441828D01*
X146525422Y-87564475D01*
X146839755Y-87627000D01*
X147160245Y-87627000D01*
X147474578Y-87564475D01*
X147770673Y-87441828D01*
X148037152Y-87263773D01*
X148263773Y-87037152D01*
X148441828Y-86770673D01*
X148564475Y-86474578D01*
X148587240Y-86360131D01*
X150425860Y-84521512D01*
X150478396Y-84478397D01*
X150525497Y-84421005D01*
X150650472Y-84268722D01*
X150650474Y-84268720D01*
X150778337Y-84029505D01*
X150778337Y-84029504D01*
X150857075Y-83769940D01*
X150883662Y-83500000D01*
X150877000Y-83432360D01*
X150877000Y-80633752D01*
X150910498Y-80744180D01*
X150969463Y-80854494D01*
X151048815Y-80951185D01*
X151145506Y-81030537D01*
X151255820Y-81089502D01*
X151375518Y-81125812D01*
X151500000Y-81138072D01*
X151714250Y-81135000D01*
X151873000Y-80976250D01*
X151873000Y-78127000D01*
X152127000Y-78127000D01*
X152127000Y-80976250D01*
X152285750Y-81135000D01*
X152500000Y-81138072D01*
X152624482Y-81125812D01*
X152744180Y-81089502D01*
X152854494Y-81030537D01*
X152951185Y-80951185D01*
X153030537Y-80854494D01*
X153089502Y-80744180D01*
X153125812Y-80624482D01*
X153138072Y-80500000D01*
X160861928Y-80500000D01*
X160874188Y-80624482D01*
X160910498Y-80744180D01*
X160969463Y-80854494D01*
X161048815Y-80951185D01*
X161145506Y-81030537D01*
X161255820Y-81089502D01*
X161375518Y-81125812D01*
X161500000Y-81138072D01*
X161714250Y-81135000D01*
X161873000Y-80976250D01*
X161873000Y-78127000D01*
X161023750Y-78127000D01*
X160865000Y-78285750D01*
X160861928Y-80500000D01*
X153138072Y-80500000D01*
X153135000Y-78285750D01*
X152976250Y-78127000D01*
X152127000Y-78127000D01*
X151873000Y-78127000D01*
X151853000Y-78127000D01*
X151853000Y-77873000D01*
X151873000Y-77873000D01*
X151873000Y-77853000D01*
X152127000Y-77853000D01*
X152127000Y-77873000D01*
X152976250Y-77873000D01*
X153135000Y-77714250D01*
X153137156Y-76160000D01*
X160862844Y-76160000D01*
X160865000Y-77714250D01*
X161023750Y-77873000D01*
X161873000Y-77873000D01*
X161873000Y-77853000D01*
X162127000Y-77853000D01*
X162127000Y-77873000D01*
X162147000Y-77873000D01*
X162147000Y-78127000D01*
X162127000Y-78127000D01*
X162127000Y-80976250D01*
X162285750Y-81135000D01*
X162500000Y-81138072D01*
X162624482Y-81125812D01*
X162744180Y-81089502D01*
X162854494Y-81030537D01*
X162951185Y-80951185D01*
X163030537Y-80854494D01*
X163089502Y-80744180D01*
X163123000Y-80633752D01*
X163123000Y-80929628D01*
X159429629Y-84623000D01*
X152867695Y-84623000D01*
X152770673Y-84558172D01*
X152474578Y-84435525D01*
X152160245Y-84373000D01*
X151839755Y-84373000D01*
X151525422Y-84435525D01*
X151229327Y-84558172D01*
X150962848Y-84736227D01*
X150736227Y-84962848D01*
X150558172Y-85229327D01*
X150435525Y-85525422D01*
X150373000Y-85839755D01*
X150373000Y-86160245D01*
X150435525Y-86474578D01*
X150558172Y-86770673D01*
X150736227Y-87037152D01*
X150962848Y-87263773D01*
X151229327Y-87441828D01*
X151525422Y-87564475D01*
X151839755Y-87627000D01*
X152160245Y-87627000D01*
X152474578Y-87564475D01*
X152770673Y-87441828D01*
X152867695Y-87377000D01*
X159932360Y-87377000D01*
X160000000Y-87383662D01*
X160269939Y-87357075D01*
X160529505Y-87278337D01*
X160768721Y-87150473D01*
X160978397Y-86978397D01*
X161021521Y-86925850D01*
X162191334Y-85756037D01*
X169523000Y-85756037D01*
X169523000Y-86243963D01*
X169618190Y-86722514D01*
X169804911Y-87173299D01*
X170075989Y-87578995D01*
X170421005Y-87924011D01*
X170826701Y-88195089D01*
X171277486Y-88381810D01*
X171756037Y-88477000D01*
X172243963Y-88477000D01*
X172722514Y-88381810D01*
X173173299Y-88195089D01*
X173578995Y-87924011D01*
X173924011Y-87578995D01*
X174195089Y-87173299D01*
X174381810Y-86722514D01*
X174477000Y-86243963D01*
X174477000Y-85756037D01*
X174381810Y-85277486D01*
X174195089Y-84826701D01*
X173924011Y-84421005D01*
X173578995Y-84075989D01*
X173173299Y-83804911D01*
X172722514Y-83618190D01*
X172243963Y-83523000D01*
X171756037Y-83523000D01*
X171277486Y-83618190D01*
X170826701Y-83804911D01*
X170421005Y-84075989D01*
X170075989Y-84421005D01*
X169804911Y-84826701D01*
X169618190Y-85277486D01*
X169523000Y-85756037D01*
X162191334Y-85756037D01*
X165425860Y-82521512D01*
X165478396Y-82478397D01*
X165650473Y-82268721D01*
X165778337Y-82029505D01*
X165857075Y-81769939D01*
X165877000Y-81567640D01*
X165877000Y-81567639D01*
X165883662Y-81500001D01*
X165877000Y-81432361D01*
X165877000Y-80633752D01*
X165910498Y-80744180D01*
X165969463Y-80854494D01*
X166048815Y-80951185D01*
X166145506Y-81030537D01*
X166255820Y-81089502D01*
X166375518Y-81125812D01*
X166500000Y-81138072D01*
X166714250Y-81135000D01*
X166873000Y-80976250D01*
X166873000Y-78127000D01*
X167127000Y-78127000D01*
X167127000Y-80976250D01*
X167285750Y-81135000D01*
X167500000Y-81138072D01*
X167624482Y-81125812D01*
X167744180Y-81089502D01*
X167854494Y-81030537D01*
X167951185Y-80951185D01*
X168030537Y-80854494D01*
X168089502Y-80744180D01*
X168125812Y-80624482D01*
X168138072Y-80500000D01*
X168135000Y-78285750D01*
X167976250Y-78127000D01*
X167127000Y-78127000D01*
X166873000Y-78127000D01*
X166853000Y-78127000D01*
X166853000Y-77873000D01*
X166873000Y-77873000D01*
X166873000Y-77853000D01*
X167127000Y-77853000D01*
X167127000Y-77873000D01*
X167976250Y-77873000D01*
X168135000Y-77714250D01*
X168137156Y-76160000D01*
X177340000Y-76160000D01*
X177340001Y-94340000D01*
X106660000Y-94340000D01*
X106660000Y-85756037D01*
X109523000Y-85756037D01*
X109523000Y-86243963D01*
X109618190Y-86722514D01*
X109804911Y-87173299D01*
X110075989Y-87578995D01*
X110421005Y-87924011D01*
X110826701Y-88195089D01*
X111277486Y-88381810D01*
X111756037Y-88477000D01*
X112243963Y-88477000D01*
X112722514Y-88381810D01*
X113173299Y-88195089D01*
X113578995Y-87924011D01*
X113924011Y-87578995D01*
X114195089Y-87173299D01*
X114381810Y-86722514D01*
X114477000Y-86243963D01*
X114477000Y-85756037D01*
X114381810Y-85277486D01*
X114195089Y-84826701D01*
X113924011Y-84421005D01*
X113578995Y-84075989D01*
X113173299Y-83804911D01*
X112722514Y-83618190D01*
X112243963Y-83523000D01*
X111756037Y-83523000D01*
X111277486Y-83618190D01*
X110826701Y-83804911D01*
X110421005Y-84075989D01*
X110075989Y-84421005D01*
X109804911Y-84826701D01*
X109618190Y-85277486D01*
X109523000Y-85756037D01*
X106660000Y-85756037D01*
X106660000Y-80500000D01*
X115861928Y-80500000D01*
X115874188Y-80624482D01*
X115910498Y-80744180D01*
X115969463Y-80854494D01*
X116048815Y-80951185D01*
X116145506Y-81030537D01*
X116255820Y-81089502D01*
X116375518Y-81125812D01*
X116500000Y-81138072D01*
X116714250Y-81135000D01*
X116873000Y-80976250D01*
X116873000Y-78127000D01*
X116023750Y-78127000D01*
X115865000Y-78285750D01*
X115861928Y-80500000D01*
X106660000Y-80500000D01*
X106660000Y-76160000D01*
X115862844Y-76160000D01*
X115865000Y-77714250D01*
G36*
X145865000Y-77714250D02*
G01*
X146023750Y-77873000D01*
X146873000Y-77873000D01*
X146873000Y-77853000D01*
X147127000Y-77853000D01*
X147127000Y-77873000D01*
X147147000Y-77873000D01*
X147147000Y-78127000D01*
X147127000Y-78127000D01*
X147127000Y-80976250D01*
X147285750Y-81135000D01*
X147500000Y-81138072D01*
X147624482Y-81125812D01*
X147744180Y-81089502D01*
X147854494Y-81030537D01*
X147951185Y-80951185D01*
X148030537Y-80854494D01*
X148089502Y-80744180D01*
X148123001Y-80633752D01*
X148123000Y-82929628D01*
X146639869Y-84412760D01*
X146525422Y-84435525D01*
X146229327Y-84558172D01*
X145962848Y-84736227D01*
X145736227Y-84962848D01*
X145558172Y-85229327D01*
X145549112Y-85251200D01*
X145487617Y-84942043D01*
X145214206Y-84281971D01*
X144817275Y-83687922D01*
X144312078Y-83182725D01*
X143718029Y-82785794D01*
X143057957Y-82512383D01*
X142357228Y-82373000D01*
X141642772Y-82373000D01*
X140942043Y-82512383D01*
X140281971Y-82785794D01*
X139687922Y-83182725D01*
X139182725Y-83687922D01*
X138785794Y-84281971D01*
X138512383Y-84942043D01*
X138450888Y-85251200D01*
X138441828Y-85229327D01*
X138263773Y-84962848D01*
X138037152Y-84736227D01*
X137770673Y-84558172D01*
X137474578Y-84435525D01*
X137360132Y-84412760D01*
X135877000Y-82929629D01*
X135877000Y-80633752D01*
X135910498Y-80744180D01*
X135969463Y-80854494D01*
X136048815Y-80951185D01*
X136145506Y-81030537D01*
X136255820Y-81089502D01*
X136375518Y-81125812D01*
X136500000Y-81138072D01*
X136714250Y-81135000D01*
X136873000Y-80976250D01*
X136873000Y-78127000D01*
X137127000Y-78127000D01*
X137127000Y-80976250D01*
X137285750Y-81135000D01*
X137500000Y-81138072D01*
X137624482Y-81125812D01*
X137744180Y-81089502D01*
X137854494Y-81030537D01*
X137951185Y-80951185D01*
X138030537Y-80854494D01*
X138089502Y-80744180D01*
X138125812Y-80624482D01*
X138138072Y-80500000D01*
X145861928Y-80500000D01*
X145874188Y-80624482D01*
X145910498Y-80744180D01*
X145969463Y-80854494D01*
X146048815Y-80951185D01*
X146145506Y-81030537D01*
X146255820Y-81089502D01*
X146375518Y-81125812D01*
X146500000Y-81138072D01*
X146714250Y-81135000D01*
X146873000Y-80976250D01*
X146873000Y-78127000D01*
X146023750Y-78127000D01*
X145865000Y-78285750D01*
X145861928Y-80500000D01*
X138138072Y-80500000D01*
X138135000Y-78285750D01*
X137976250Y-78127000D01*
X137127000Y-78127000D01*
X136873000Y-78127000D01*
X136853000Y-78127000D01*
X136853000Y-77873000D01*
X136873000Y-77873000D01*
X136873000Y-77853000D01*
X137127000Y-77853000D01*
X137127000Y-77873000D01*
X137976250Y-77873000D01*
X138135000Y-77714250D01*
X138137156Y-76160000D01*
X145862844Y-76160000D01*
X145865000Y-77714250D01*
G37*
X145865000Y-77714250D02*
X146023750Y-77873000D01*
X146873000Y-77873000D01*
X146873000Y-77853000D01*
X147127000Y-77853000D01*
X147127000Y-77873000D01*
X147147000Y-77873000D01*
X147147000Y-78127000D01*
X147127000Y-78127000D01*
X147127000Y-80976250D01*
X147285750Y-81135000D01*
X147500000Y-81138072D01*
X147624482Y-81125812D01*
X147744180Y-81089502D01*
X147854494Y-81030537D01*
X147951185Y-80951185D01*
X148030537Y-80854494D01*
X148089502Y-80744180D01*
X148123001Y-80633752D01*
X148123000Y-82929628D01*
X146639869Y-84412760D01*
X146525422Y-84435525D01*
X146229327Y-84558172D01*
X145962848Y-84736227D01*
X145736227Y-84962848D01*
X145558172Y-85229327D01*
X145549112Y-85251200D01*
X145487617Y-84942043D01*
X145214206Y-84281971D01*
X144817275Y-83687922D01*
X144312078Y-83182725D01*
X143718029Y-82785794D01*
X143057957Y-82512383D01*
X142357228Y-82373000D01*
X141642772Y-82373000D01*
X140942043Y-82512383D01*
X140281971Y-82785794D01*
X139687922Y-83182725D01*
X139182725Y-83687922D01*
X138785794Y-84281971D01*
X138512383Y-84942043D01*
X138450888Y-85251200D01*
X138441828Y-85229327D01*
X138263773Y-84962848D01*
X138037152Y-84736227D01*
X137770673Y-84558172D01*
X137474578Y-84435525D01*
X137360132Y-84412760D01*
X135877000Y-82929629D01*
X135877000Y-80633752D01*
X135910498Y-80744180D01*
X135969463Y-80854494D01*
X136048815Y-80951185D01*
X136145506Y-81030537D01*
X136255820Y-81089502D01*
X136375518Y-81125812D01*
X136500000Y-81138072D01*
X136714250Y-81135000D01*
X136873000Y-80976250D01*
X136873000Y-78127000D01*
X137127000Y-78127000D01*
X137127000Y-80976250D01*
X137285750Y-81135000D01*
X137500000Y-81138072D01*
X137624482Y-81125812D01*
X137744180Y-81089502D01*
X137854494Y-81030537D01*
X137951185Y-80951185D01*
X138030537Y-80854494D01*
X138089502Y-80744180D01*
X138125812Y-80624482D01*
X138138072Y-80500000D01*
X145861928Y-80500000D01*
X145874188Y-80624482D01*
X145910498Y-80744180D01*
X145969463Y-80854494D01*
X146048815Y-80951185D01*
X146145506Y-81030537D01*
X146255820Y-81089502D01*
X146375518Y-81125812D01*
X146500000Y-81138072D01*
X146714250Y-81135000D01*
X146873000Y-80976250D01*
X146873000Y-78127000D01*
X146023750Y-78127000D01*
X145865000Y-78285750D01*
X145861928Y-80500000D01*
X138138072Y-80500000D01*
X138135000Y-78285750D01*
X137976250Y-78127000D01*
X137127000Y-78127000D01*
X136873000Y-78127000D01*
X136853000Y-78127000D01*
X136853000Y-77873000D01*
X136873000Y-77873000D01*
X136873000Y-77853000D01*
X137127000Y-77853000D01*
X137127000Y-77873000D01*
X137976250Y-77873000D01*
X138135000Y-77714250D01*
X138137156Y-76160000D01*
X145862844Y-76160000D01*
X145865000Y-77714250D01*
M02*
