M48
; DRILL file {KiCad 5.1.5+dfsg1-2build2} date Tue 16 Mar 2021 09:46:02 PM PDT
; FORMAT={-:-/ absolute / metric / decimal}
; #@! TF.CreationDate,2021-03-16T21:46:02-07:00
; #@! TF.GenerationSoftware,Kicad,Pcbnew,5.1.5+dfsg1-2build2
; #@! TF.FileFunction,Plated,1,2,PTH
FMAT,2
METRIC
T1C1.000
%
G90
G05
T1
X17.719Y-17.805
X20.259Y-17.805
X22.799Y-17.805
X25.339Y-17.805
X27.879Y-17.805
X30.419Y-17.805
X32.959Y-17.805
X35.499Y-17.805
X38.039Y-17.805
X40.579Y-17.805
X43.119Y-17.805
X45.659Y-17.805
X48.199Y-17.805
X50.739Y-17.805
X53.279Y-17.805
X55.819Y-17.805
X58.359Y-17.805
X60.899Y-17.805
X63.439Y-17.805
X65.979Y-17.805
X68.519Y-17.805
X71.059Y-17.805
X73.599Y-17.805
X76.139Y-17.805
X78.679Y-17.805
X81.219Y-17.805
X83.759Y-17.805
X86.299Y-17.805
X88.839Y-17.805
X91.379Y-17.805
X93.919Y-17.805
X96.459Y-17.805
X17.714Y-53.546
X20.254Y-53.546
X22.794Y-53.546
X25.334Y-53.546
X27.874Y-53.546
X30.414Y-53.546
X32.954Y-53.546
X35.494Y-53.546
X38.034Y-53.546
X40.574Y-53.546
X43.114Y-53.546
X45.654Y-53.546
X48.194Y-53.546
X50.734Y-53.546
X53.274Y-53.546
X55.814Y-53.546
X58.354Y-53.546
X60.894Y-53.546
X63.434Y-53.546
X65.974Y-53.546
X68.514Y-53.546
X71.054Y-53.546
X73.594Y-53.546
X76.134Y-53.546
X78.674Y-53.546
X81.214Y-53.546
X83.754Y-53.546
X86.294Y-53.546
X88.834Y-53.546
X91.374Y-53.546
X93.914Y-53.546
X96.454Y-53.546
T0
M30
