G04 #@! TF.GenerationSoftware,KiCad,Pcbnew,5.1.5+dfsg1-2build2*
G04 #@! TF.CreationDate,2021-03-16T21:46:15-07:00*
G04 #@! TF.ProjectId,soldering-test,736f6c64-6572-4696-9e67-2d746573742e,rev?*
G04 #@! TF.SameCoordinates,Original*
G04 #@! TF.FileFunction,Copper,L2,Bot*
G04 #@! TF.FilePolarity,Positive*
%FSLAX46Y46*%
G04 Gerber Fmt 4.6, Leading zero omitted, Abs format (unit mm)*
G04 Created by KiCad (PCBNEW 5.1.5+dfsg1-2build2) date 2021-03-16 21:46:15*
%MOMM*%
%LPD*%
G04 APERTURE LIST*
%ADD10R,1.700000X1.700000*%
%ADD11O,1.700000X1.700000*%
G04 APERTURE END LIST*
D10*
X96459040Y-17805400D03*
D11*
X93919040Y-17805400D03*
X91379040Y-17805400D03*
X88839040Y-17805400D03*
X86299040Y-17805400D03*
X83759040Y-17805400D03*
X81219040Y-17805400D03*
X78679040Y-17805400D03*
X76139040Y-17805400D03*
X73599040Y-17805400D03*
X71059040Y-17805400D03*
X68519040Y-17805400D03*
X65979040Y-17805400D03*
X63439040Y-17805400D03*
X60899040Y-17805400D03*
X58359040Y-17805400D03*
X55819040Y-17805400D03*
X53279040Y-17805400D03*
X50739040Y-17805400D03*
X48199040Y-17805400D03*
X45659040Y-17805400D03*
X43119040Y-17805400D03*
X40579040Y-17805400D03*
X38039040Y-17805400D03*
X35499040Y-17805400D03*
X32959040Y-17805400D03*
X30419040Y-17805400D03*
X27879040Y-17805400D03*
X25339040Y-17805400D03*
X22799040Y-17805400D03*
X20259040Y-17805400D03*
X17719040Y-17805400D03*
D10*
X96453960Y-53545740D03*
D11*
X93913960Y-53545740D03*
X91373960Y-53545740D03*
X88833960Y-53545740D03*
X86293960Y-53545740D03*
X83753960Y-53545740D03*
X81213960Y-53545740D03*
X78673960Y-53545740D03*
X76133960Y-53545740D03*
X73593960Y-53545740D03*
X71053960Y-53545740D03*
X68513960Y-53545740D03*
X65973960Y-53545740D03*
X63433960Y-53545740D03*
X60893960Y-53545740D03*
X58353960Y-53545740D03*
X55813960Y-53545740D03*
X53273960Y-53545740D03*
X50733960Y-53545740D03*
X48193960Y-53545740D03*
X45653960Y-53545740D03*
X43113960Y-53545740D03*
X40573960Y-53545740D03*
X38033960Y-53545740D03*
X35493960Y-53545740D03*
X32953960Y-53545740D03*
X30413960Y-53545740D03*
X27873960Y-53545740D03*
X25333960Y-53545740D03*
X22793960Y-53545740D03*
X20253960Y-53545740D03*
X17713960Y-53545740D03*
M02*
