G04 #@! TF.GenerationSoftware,KiCad,Pcbnew,5.1.5+dfsg1-2build2*
G04 #@! TF.CreationDate,2021-03-16T21:46:15-07:00*
G04 #@! TF.ProjectId,soldering-test,736f6c64-6572-4696-9e67-2d746573742e,rev?*
G04 #@! TF.SameCoordinates,Original*
G04 #@! TF.FileFunction,Legend,Top*
G04 #@! TF.FilePolarity,Positive*
%FSLAX46Y46*%
G04 Gerber Fmt 4.6, Leading zero omitted, Abs format (unit mm)*
G04 Created by KiCad (PCBNEW 5.1.5+dfsg1-2build2) date 2021-03-16 21:46:15*
%MOMM*%
%LPD*%
G04 APERTURE LIST*
%ADD10C,0.120000*%
%ADD11C,0.150000*%
G04 APERTURE END LIST*
D10*
X95189040Y-16475400D02*
X95189040Y-19135400D01*
X95189040Y-16475400D02*
X16389040Y-16475400D01*
X16389040Y-16475400D02*
X16389040Y-19135400D01*
X95189040Y-19135400D02*
X16389040Y-19135400D01*
X97789040Y-19135400D02*
X96459040Y-19135400D01*
X97789040Y-17805400D02*
X97789040Y-19135400D01*
X95183960Y-52215740D02*
X95183960Y-54875740D01*
X95183960Y-52215740D02*
X16383960Y-52215740D01*
X16383960Y-52215740D02*
X16383960Y-54875740D01*
X95183960Y-54875740D02*
X16383960Y-54875740D01*
X97783960Y-54875740D02*
X96453960Y-54875740D01*
X97783960Y-53545740D02*
X97783960Y-54875740D01*
D11*
X98681420Y-18138733D02*
X99395706Y-18138733D01*
X99538563Y-18186352D01*
X99633801Y-18281590D01*
X99681420Y-18424447D01*
X99681420Y-18519685D01*
X99681420Y-17138733D02*
X99681420Y-17710161D01*
X99681420Y-17424447D02*
X98681420Y-17424447D01*
X98824278Y-17519685D01*
X98919516Y-17614923D01*
X98967135Y-17710161D01*
X98676340Y-53879073D02*
X99390626Y-53879073D01*
X99533483Y-53926692D01*
X99628721Y-54021930D01*
X99676340Y-54164787D01*
X99676340Y-54260025D01*
X98771579Y-53450501D02*
X98723960Y-53402882D01*
X98676340Y-53307644D01*
X98676340Y-53069549D01*
X98723960Y-52974311D01*
X98771579Y-52926692D01*
X98866817Y-52879073D01*
X98962055Y-52879073D01*
X99104912Y-52926692D01*
X99676340Y-53498120D01*
X99676340Y-52879073D01*
M02*
