%TF.GenerationSoftware,KiCad,Pcbnew,5.1.5+dfsg1-2build2*%
%TF.CreationDate,2021-02-13T12:36:53-08:00*%
%TF.ProjectId,555-timer,3535352d-7469-46d6-9572-2e6b69636164,rev?*%
%TF.SameCoordinates,Original*%
%TF.FileFunction,Copper,L1,Top*%
%TF.FilePolarity,Positive*%
%FSLAX46Y46*%
G04 Gerber Fmt 4.6, Leading zero omitted, Abs format (unit mm)*
G04 Created by KiCad (PCBNEW 5.1.5+dfsg1-2build2) date 2021-02-13 12:36:53*
%MOMM*%
%LPD*%
G04 APERTURE LIST*
%TA.AperFunction,ComponentPad*%
%ADD10O,1.600000X1.600000*%
%TD*%
%TA.AperFunction,ComponentPad*%
%ADD11R,1.600000X1.600000*%
%TD*%
%TA.AperFunction,ComponentPad*%
%ADD12C,1.600000*%
%TD*%
%TA.AperFunction,SMDPad,CuDef*%
%ADD13R,5.080000X1.500000*%
%TD*%
%TA.AperFunction,ComponentPad*%
%ADD14C,8.000000*%
%TD*%
%TA.AperFunction,ViaPad*%
%ADD15C,1.600000*%
%TD*%
%TA.AperFunction,Conductor*%
%ADD16C,0.500000*%
%TD*%
%TA.AperFunction,Conductor*%
%ADD17C,0.254000*%
%TD*%
G04 APERTURE END LIST*
D10*
%TO.P,U1,8*%
%TO.N,+10V*%
X50800000Y-32385000D03*
%TO.P,U1,4*%
X43180000Y-40005000D03*
%TO.P,U1,7*%
%TO.N,Net-(R1-Pad1)*%
X50800000Y-34925000D03*
%TO.P,U1,3*%
%TO.N,Net-(J2-Pad1)*%
X43180000Y-37465000D03*
%TO.P,U1,6*%
%TO.N,Net-(C2-Pad1)*%
X50800000Y-37465000D03*
%TO.P,U1,2*%
X43180000Y-34925000D03*
%TO.P,U1,5*%
%TO.N,Net-(C1-Pad1)*%
X50800000Y-40005000D03*
D11*
%TO.P,U1,1*%
%TO.N,GND*%
X43180000Y-32385000D03*
%TD*%
D10*
%TO.P,R2,2*%
%TO.N,Net-(C2-Pad1)*%
X71755000Y-42545000D03*
D12*
%TO.P,R2,1*%
%TO.N,Net-(R1-Pad1)*%
X71755000Y-34925000D03*
%TD*%
D10*
%TO.P,R1,2*%
%TO.N,+10V*%
X71755000Y-21590000D03*
D12*
%TO.P,R1,1*%
%TO.N,Net-(R1-Pad1)*%
X71755000Y-29210000D03*
%TD*%
D13*
%TO.P,J2,1*%
%TO.N,Net-(J2-Pad1)*%
X15240000Y-37465000D03*
%TO.P,J2,2*%
%TO.N,GND*%
X15240000Y-41715000D03*
X15240000Y-33215000D03*
%TD*%
D14*
%TO.P,J1,2*%
%TO.N,+10V*%
X50800000Y-21590000D03*
%TO.P,J1,1*%
%TO.N,GND*%
X31700000Y-21590000D03*
%TD*%
D12*
%TO.P,C2,2*%
%TO.N,GND*%
X62865000Y-47545000D03*
D11*
%TO.P,C2,1*%
%TO.N,Net-(C2-Pad1)*%
X62865000Y-42545000D03*
%TD*%
D12*
%TO.P,C1,2*%
%TO.N,GND*%
X50800000Y-52625000D03*
D11*
%TO.P,C1,1*%
%TO.N,Net-(C1-Pad1)*%
X50800000Y-47625000D03*
%TD*%
D15*
%TO.N,Net-(C2-Pad1)*%
X38735000Y-31750000D03*
X38735000Y-44450000D03*
%TD*%
D16*
%TO.N,Net-(C1-Pad1)*%
X50800000Y-47625000D02*
X50800000Y-40005000D01*
%TO.N,Net-(C2-Pad1)*%
X71755000Y-42545000D02*
X62865000Y-42545000D01*
X43180000Y-34925000D02*
X41910000Y-34925000D01*
X41910000Y-34925000D02*
X38735000Y-31750000D01*
X50800000Y-37465000D02*
X47625000Y-40640000D01*
X47625000Y-40640000D02*
X47625000Y-43815000D01*
X47625000Y-43815000D02*
X39370000Y-43815000D01*
X39370000Y-43815000D02*
X38735000Y-44450000D01*
X50800000Y-37465000D02*
X52806600Y-37465000D01*
X52806600Y-37465000D02*
X55753000Y-40411400D01*
X60731400Y-40411400D02*
X62865000Y-42545000D01*
X55753000Y-40411400D02*
X60731400Y-40411400D01*
%TO.N,+10V*%
X50800000Y-21590000D02*
X71755000Y-21590000D01*
X43180000Y-40005000D02*
X50800000Y-32385000D01*
%TO.N,Net-(J2-Pad1)*%
X15240000Y-37465000D02*
X43180000Y-37465000D01*
%TO.N,Net-(R1-Pad1)*%
X71755000Y-29210000D02*
X71755000Y-34925000D01*
X50800000Y-34925000D02*
X71755000Y-34925000D01*
%TD*%
D17*
%TO.N,GND*%
G36*
X83058000Y-57658000D02*
G01*
X12827000Y-57658000D01*
X12827000Y-53617702D01*
X49986903Y-53617702D01*
X50058486Y-53861671D01*
X50313996Y-53982571D01*
X50588184Y-54051300D01*
X50870512Y-54065217D01*
X51150130Y-54023787D01*
X51416292Y-53928603D01*
X51541514Y-53861671D01*
X51613097Y-53617702D01*
X50800000Y-52804605D01*
X49986903Y-53617702D01*
X12827000Y-53617702D01*
X12827000Y-52695512D01*
X49359783Y-52695512D01*
X49401213Y-52975130D01*
X49496397Y-53241292D01*
X49563329Y-53366514D01*
X49807298Y-53438097D01*
X50620395Y-52625000D01*
X50979605Y-52625000D01*
X51792702Y-53438097D01*
X52036671Y-53366514D01*
X52157571Y-53111004D01*
X52226300Y-52836816D01*
X52240217Y-52554488D01*
X52198787Y-52274870D01*
X52103603Y-52008708D01*
X52036671Y-51883486D01*
X51792702Y-51811903D01*
X50979605Y-52625000D01*
X50620395Y-52625000D01*
X49807298Y-51811903D01*
X49563329Y-51883486D01*
X49442429Y-52138996D01*
X49373700Y-52413184D01*
X49359783Y-52695512D01*
X12827000Y-52695512D01*
X12827000Y-51632298D01*
X49986903Y-51632298D01*
X50800000Y-52445395D01*
X51613097Y-51632298D01*
X51541514Y-51388329D01*
X51286004Y-51267429D01*
X51011816Y-51198700D01*
X50729488Y-51184783D01*
X50449870Y-51226213D01*
X50183708Y-51321397D01*
X50058486Y-51388329D01*
X49986903Y-51632298D01*
X12827000Y-51632298D01*
X12827000Y-43102899D01*
X14954250Y-43100000D01*
X15113000Y-42941250D01*
X15113000Y-41842000D01*
X15367000Y-41842000D01*
X15367000Y-42941250D01*
X15525750Y-43100000D01*
X17780000Y-43103072D01*
X17904482Y-43090812D01*
X18024180Y-43054502D01*
X18134494Y-42995537D01*
X18231185Y-42916185D01*
X18310537Y-42819494D01*
X18369502Y-42709180D01*
X18405812Y-42589482D01*
X18418072Y-42465000D01*
X18415000Y-42000750D01*
X18256250Y-41842000D01*
X15367000Y-41842000D01*
X15113000Y-41842000D01*
X15093000Y-41842000D01*
X15093000Y-41588000D01*
X15113000Y-41588000D01*
X15113000Y-40488750D01*
X15367000Y-40488750D01*
X15367000Y-41588000D01*
X18256250Y-41588000D01*
X18415000Y-41429250D01*
X18418072Y-40965000D01*
X18405812Y-40840518D01*
X18369502Y-40720820D01*
X18310537Y-40610506D01*
X18231185Y-40513815D01*
X18134494Y-40434463D01*
X18024180Y-40375498D01*
X17904482Y-40339188D01*
X17780000Y-40326928D01*
X15525750Y-40330000D01*
X15367000Y-40488750D01*
X15113000Y-40488750D01*
X14954250Y-40330000D01*
X12827000Y-40327101D01*
X12827000Y-38853072D01*
X17780000Y-38853072D01*
X17904482Y-38840812D01*
X18024180Y-38804502D01*
X18134494Y-38745537D01*
X18231185Y-38666185D01*
X18310537Y-38569494D01*
X18369502Y-38459180D01*
X18402621Y-38350000D01*
X42045479Y-38350000D01*
X42065363Y-38379759D01*
X42265241Y-38579637D01*
X42497759Y-38735000D01*
X42265241Y-38890363D01*
X42065363Y-39090241D01*
X41908320Y-39325273D01*
X41800147Y-39586426D01*
X41745000Y-39863665D01*
X41745000Y-40146335D01*
X41800147Y-40423574D01*
X41908320Y-40684727D01*
X42065363Y-40919759D01*
X42265241Y-41119637D01*
X42500273Y-41276680D01*
X42761426Y-41384853D01*
X43038665Y-41440000D01*
X43321335Y-41440000D01*
X43598574Y-41384853D01*
X43859727Y-41276680D01*
X44094759Y-41119637D01*
X44294637Y-40919759D01*
X44451680Y-40684727D01*
X44559853Y-40423574D01*
X44615000Y-40146335D01*
X44615000Y-39863665D01*
X44608017Y-39828561D01*
X49365870Y-35070709D01*
X49420147Y-35343574D01*
X49528320Y-35604727D01*
X49685363Y-35839759D01*
X49885241Y-36039637D01*
X50117759Y-36195000D01*
X49885241Y-36350363D01*
X49685363Y-36550241D01*
X49528320Y-36785273D01*
X49420147Y-37046426D01*
X49365000Y-37323665D01*
X49365000Y-37606335D01*
X49371983Y-37641439D01*
X47029956Y-39983466D01*
X46996183Y-40011183D01*
X46885589Y-40145942D01*
X46803411Y-40299688D01*
X46752805Y-40466511D01*
X46740000Y-40596524D01*
X46740000Y-40596531D01*
X46735719Y-40640000D01*
X46740000Y-40683469D01*
X46740001Y-42930000D01*
X39413469Y-42930000D01*
X39370000Y-42925719D01*
X39326531Y-42930000D01*
X39326523Y-42930000D01*
X39196510Y-42942805D01*
X39029686Y-42993411D01*
X38958659Y-43031375D01*
X38876335Y-43015000D01*
X38593665Y-43015000D01*
X38316426Y-43070147D01*
X38055273Y-43178320D01*
X37820241Y-43335363D01*
X37620363Y-43535241D01*
X37463320Y-43770273D01*
X37355147Y-44031426D01*
X37300000Y-44308665D01*
X37300000Y-44591335D01*
X37355147Y-44868574D01*
X37463320Y-45129727D01*
X37620363Y-45364759D01*
X37820241Y-45564637D01*
X38055273Y-45721680D01*
X38316426Y-45829853D01*
X38593665Y-45885000D01*
X38876335Y-45885000D01*
X39153574Y-45829853D01*
X39414727Y-45721680D01*
X39649759Y-45564637D01*
X39849637Y-45364759D01*
X40006680Y-45129727D01*
X40114853Y-44868574D01*
X40148385Y-44700000D01*
X47581524Y-44700000D01*
X47625000Y-44704282D01*
X47798490Y-44687195D01*
X47965313Y-44636589D01*
X48119059Y-44554411D01*
X48253817Y-44443817D01*
X48364411Y-44309059D01*
X48446589Y-44155313D01*
X48497195Y-43988490D01*
X48510000Y-43858477D01*
X48514282Y-43815000D01*
X48510000Y-43771523D01*
X48510000Y-41006578D01*
X49365870Y-40150708D01*
X49420147Y-40423574D01*
X49528320Y-40684727D01*
X49685363Y-40919759D01*
X49885241Y-41119637D01*
X49915001Y-41139522D01*
X49915000Y-46195299D01*
X49875518Y-46199188D01*
X49755820Y-46235498D01*
X49645506Y-46294463D01*
X49548815Y-46373815D01*
X49469463Y-46470506D01*
X49410498Y-46580820D01*
X49374188Y-46700518D01*
X49361928Y-46825000D01*
X49361928Y-48425000D01*
X49374188Y-48549482D01*
X49410498Y-48669180D01*
X49469463Y-48779494D01*
X49548815Y-48876185D01*
X49645506Y-48955537D01*
X49755820Y-49014502D01*
X49875518Y-49050812D01*
X50000000Y-49063072D01*
X51600000Y-49063072D01*
X51724482Y-49050812D01*
X51844180Y-49014502D01*
X51954494Y-48955537D01*
X52051185Y-48876185D01*
X52130537Y-48779494D01*
X52189502Y-48669180D01*
X52225812Y-48549482D01*
X52226972Y-48537702D01*
X62051903Y-48537702D01*
X62123486Y-48781671D01*
X62378996Y-48902571D01*
X62653184Y-48971300D01*
X62935512Y-48985217D01*
X63215130Y-48943787D01*
X63481292Y-48848603D01*
X63606514Y-48781671D01*
X63678097Y-48537702D01*
X62865000Y-47724605D01*
X62051903Y-48537702D01*
X52226972Y-48537702D01*
X52238072Y-48425000D01*
X52238072Y-47615512D01*
X61424783Y-47615512D01*
X61466213Y-47895130D01*
X61561397Y-48161292D01*
X61628329Y-48286514D01*
X61872298Y-48358097D01*
X62685395Y-47545000D01*
X63044605Y-47545000D01*
X63857702Y-48358097D01*
X64101671Y-48286514D01*
X64222571Y-48031004D01*
X64291300Y-47756816D01*
X64305217Y-47474488D01*
X64263787Y-47194870D01*
X64168603Y-46928708D01*
X64101671Y-46803486D01*
X63857702Y-46731903D01*
X63044605Y-47545000D01*
X62685395Y-47545000D01*
X61872298Y-46731903D01*
X61628329Y-46803486D01*
X61507429Y-47058996D01*
X61438700Y-47333184D01*
X61424783Y-47615512D01*
X52238072Y-47615512D01*
X52238072Y-46825000D01*
X52225812Y-46700518D01*
X52189502Y-46580820D01*
X52174257Y-46552298D01*
X62051903Y-46552298D01*
X62865000Y-47365395D01*
X63678097Y-46552298D01*
X63606514Y-46308329D01*
X63351004Y-46187429D01*
X63076816Y-46118700D01*
X62794488Y-46104783D01*
X62514870Y-46146213D01*
X62248708Y-46241397D01*
X62123486Y-46308329D01*
X62051903Y-46552298D01*
X52174257Y-46552298D01*
X52130537Y-46470506D01*
X52051185Y-46373815D01*
X51954494Y-46294463D01*
X51844180Y-46235498D01*
X51724482Y-46199188D01*
X51685000Y-46195299D01*
X51685000Y-41139521D01*
X51714759Y-41119637D01*
X51914637Y-40919759D01*
X52071680Y-40684727D01*
X52179853Y-40423574D01*
X52235000Y-40146335D01*
X52235000Y-39863665D01*
X52179853Y-39586426D01*
X52071680Y-39325273D01*
X51914637Y-39090241D01*
X51714759Y-38890363D01*
X51482241Y-38735000D01*
X51714759Y-38579637D01*
X51914637Y-38379759D01*
X51934521Y-38350000D01*
X52440022Y-38350000D01*
X55096470Y-41006449D01*
X55124183Y-41040217D01*
X55157951Y-41067930D01*
X55157953Y-41067932D01*
X55220956Y-41119637D01*
X55258941Y-41150811D01*
X55412687Y-41232989D01*
X55579510Y-41283595D01*
X55709523Y-41296400D01*
X55709531Y-41296400D01*
X55753000Y-41300681D01*
X55796469Y-41296400D01*
X60364822Y-41296400D01*
X61426928Y-42358507D01*
X61426928Y-43345000D01*
X61439188Y-43469482D01*
X61475498Y-43589180D01*
X61534463Y-43699494D01*
X61613815Y-43796185D01*
X61710506Y-43875537D01*
X61820820Y-43934502D01*
X61940518Y-43970812D01*
X62065000Y-43983072D01*
X63665000Y-43983072D01*
X63789482Y-43970812D01*
X63909180Y-43934502D01*
X64019494Y-43875537D01*
X64116185Y-43796185D01*
X64195537Y-43699494D01*
X64254502Y-43589180D01*
X64290812Y-43469482D01*
X64294701Y-43430000D01*
X70620479Y-43430000D01*
X70640363Y-43459759D01*
X70840241Y-43659637D01*
X71075273Y-43816680D01*
X71336426Y-43924853D01*
X71613665Y-43980000D01*
X71896335Y-43980000D01*
X72173574Y-43924853D01*
X72434727Y-43816680D01*
X72669759Y-43659637D01*
X72869637Y-43459759D01*
X73026680Y-43224727D01*
X73134853Y-42963574D01*
X73190000Y-42686335D01*
X73190000Y-42403665D01*
X73134853Y-42126426D01*
X73026680Y-41865273D01*
X72869637Y-41630241D01*
X72669759Y-41430363D01*
X72434727Y-41273320D01*
X72173574Y-41165147D01*
X71896335Y-41110000D01*
X71613665Y-41110000D01*
X71336426Y-41165147D01*
X71075273Y-41273320D01*
X70840241Y-41430363D01*
X70640363Y-41630241D01*
X70620479Y-41660000D01*
X64294701Y-41660000D01*
X64290812Y-41620518D01*
X64254502Y-41500820D01*
X64195537Y-41390506D01*
X64116185Y-41293815D01*
X64019494Y-41214463D01*
X63909180Y-41155498D01*
X63789482Y-41119188D01*
X63665000Y-41106928D01*
X62678507Y-41106928D01*
X61387934Y-39816356D01*
X61360217Y-39782583D01*
X61225459Y-39671989D01*
X61071713Y-39589811D01*
X60904890Y-39539205D01*
X60774877Y-39526400D01*
X60774869Y-39526400D01*
X60731400Y-39522119D01*
X60687931Y-39526400D01*
X56119579Y-39526400D01*
X53463134Y-36869956D01*
X53435417Y-36836183D01*
X53300659Y-36725589D01*
X53146913Y-36643411D01*
X52980090Y-36592805D01*
X52850077Y-36580000D01*
X52850069Y-36580000D01*
X52806600Y-36575719D01*
X52763131Y-36580000D01*
X51934521Y-36580000D01*
X51914637Y-36550241D01*
X51714759Y-36350363D01*
X51482241Y-36195000D01*
X51714759Y-36039637D01*
X51914637Y-35839759D01*
X51934521Y-35810000D01*
X70620479Y-35810000D01*
X70640363Y-35839759D01*
X70840241Y-36039637D01*
X71075273Y-36196680D01*
X71336426Y-36304853D01*
X71613665Y-36360000D01*
X71896335Y-36360000D01*
X72173574Y-36304853D01*
X72434727Y-36196680D01*
X72669759Y-36039637D01*
X72869637Y-35839759D01*
X73026680Y-35604727D01*
X73134853Y-35343574D01*
X73190000Y-35066335D01*
X73190000Y-34783665D01*
X73134853Y-34506426D01*
X73026680Y-34245273D01*
X72869637Y-34010241D01*
X72669759Y-33810363D01*
X72640000Y-33790479D01*
X72640000Y-30344521D01*
X72669759Y-30324637D01*
X72869637Y-30124759D01*
X73026680Y-29889727D01*
X73134853Y-29628574D01*
X73190000Y-29351335D01*
X73190000Y-29068665D01*
X73134853Y-28791426D01*
X73026680Y-28530273D01*
X72869637Y-28295241D01*
X72669759Y-28095363D01*
X72434727Y-27938320D01*
X72173574Y-27830147D01*
X71896335Y-27775000D01*
X71613665Y-27775000D01*
X71336426Y-27830147D01*
X71075273Y-27938320D01*
X70840241Y-28095363D01*
X70640363Y-28295241D01*
X70483320Y-28530273D01*
X70375147Y-28791426D01*
X70320000Y-29068665D01*
X70320000Y-29351335D01*
X70375147Y-29628574D01*
X70483320Y-29889727D01*
X70640363Y-30124759D01*
X70840241Y-30324637D01*
X70870000Y-30344521D01*
X70870001Y-33790478D01*
X70840241Y-33810363D01*
X70640363Y-34010241D01*
X70620479Y-34040000D01*
X51934521Y-34040000D01*
X51914637Y-34010241D01*
X51714759Y-33810363D01*
X51482241Y-33655000D01*
X51714759Y-33499637D01*
X51914637Y-33299759D01*
X52071680Y-33064727D01*
X52179853Y-32803574D01*
X52235000Y-32526335D01*
X52235000Y-32243665D01*
X52179853Y-31966426D01*
X52071680Y-31705273D01*
X51914637Y-31470241D01*
X51714759Y-31270363D01*
X51479727Y-31113320D01*
X51218574Y-31005147D01*
X50941335Y-30950000D01*
X50658665Y-30950000D01*
X50381426Y-31005147D01*
X50120273Y-31113320D01*
X49885241Y-31270363D01*
X49685363Y-31470241D01*
X49528320Y-31705273D01*
X49420147Y-31966426D01*
X49365000Y-32243665D01*
X49365000Y-32526335D01*
X49371983Y-32561438D01*
X44614130Y-37319292D01*
X44559853Y-37046426D01*
X44451680Y-36785273D01*
X44294637Y-36550241D01*
X44094759Y-36350363D01*
X43862241Y-36195000D01*
X44094759Y-36039637D01*
X44294637Y-35839759D01*
X44451680Y-35604727D01*
X44559853Y-35343574D01*
X44615000Y-35066335D01*
X44615000Y-34783665D01*
X44559853Y-34506426D01*
X44451680Y-34245273D01*
X44294637Y-34010241D01*
X44096039Y-33811643D01*
X44104482Y-33810812D01*
X44224180Y-33774502D01*
X44334494Y-33715537D01*
X44431185Y-33636185D01*
X44510537Y-33539494D01*
X44569502Y-33429180D01*
X44605812Y-33309482D01*
X44618072Y-33185000D01*
X44615000Y-32670750D01*
X44456250Y-32512000D01*
X43307000Y-32512000D01*
X43307000Y-32532000D01*
X43053000Y-32532000D01*
X43053000Y-32512000D01*
X41903750Y-32512000D01*
X41745000Y-32670750D01*
X41741928Y-33185000D01*
X41754188Y-33309482D01*
X41790498Y-33429180D01*
X41849463Y-33539494D01*
X41928815Y-33636185D01*
X42025506Y-33715537D01*
X42135820Y-33774502D01*
X42255518Y-33810812D01*
X42263961Y-33811643D01*
X42156091Y-33919513D01*
X40163017Y-31926439D01*
X40170000Y-31891335D01*
X40170000Y-31608665D01*
X40165293Y-31585000D01*
X41741928Y-31585000D01*
X41745000Y-32099250D01*
X41903750Y-32258000D01*
X43053000Y-32258000D01*
X43053000Y-31108750D01*
X43307000Y-31108750D01*
X43307000Y-32258000D01*
X44456250Y-32258000D01*
X44615000Y-32099250D01*
X44618072Y-31585000D01*
X44605812Y-31460518D01*
X44569502Y-31340820D01*
X44510537Y-31230506D01*
X44431185Y-31133815D01*
X44334494Y-31054463D01*
X44224180Y-30995498D01*
X44104482Y-30959188D01*
X43980000Y-30946928D01*
X43465750Y-30950000D01*
X43307000Y-31108750D01*
X43053000Y-31108750D01*
X42894250Y-30950000D01*
X42380000Y-30946928D01*
X42255518Y-30959188D01*
X42135820Y-30995498D01*
X42025506Y-31054463D01*
X41928815Y-31133815D01*
X41849463Y-31230506D01*
X41790498Y-31340820D01*
X41754188Y-31460518D01*
X41741928Y-31585000D01*
X40165293Y-31585000D01*
X40114853Y-31331426D01*
X40006680Y-31070273D01*
X39849637Y-30835241D01*
X39649759Y-30635363D01*
X39414727Y-30478320D01*
X39153574Y-30370147D01*
X38876335Y-30315000D01*
X38593665Y-30315000D01*
X38316426Y-30370147D01*
X38055273Y-30478320D01*
X37820241Y-30635363D01*
X37620363Y-30835241D01*
X37463320Y-31070273D01*
X37355147Y-31331426D01*
X37300000Y-31608665D01*
X37300000Y-31891335D01*
X37355147Y-32168574D01*
X37463320Y-32429727D01*
X37620363Y-32664759D01*
X37820241Y-32864637D01*
X38055273Y-33021680D01*
X38316426Y-33129853D01*
X38593665Y-33185000D01*
X38876335Y-33185000D01*
X38911439Y-33178017D01*
X41253470Y-35520049D01*
X41281183Y-35553817D01*
X41314951Y-35581530D01*
X41314953Y-35581532D01*
X41343216Y-35604727D01*
X41415941Y-35664411D01*
X41569687Y-35746589D01*
X41736510Y-35797195D01*
X41866523Y-35810000D01*
X41866533Y-35810000D01*
X41909999Y-35814281D01*
X41953466Y-35810000D01*
X42045479Y-35810000D01*
X42065363Y-35839759D01*
X42265241Y-36039637D01*
X42497759Y-36195000D01*
X42265241Y-36350363D01*
X42065363Y-36550241D01*
X42045479Y-36580000D01*
X18402621Y-36580000D01*
X18369502Y-36470820D01*
X18310537Y-36360506D01*
X18231185Y-36263815D01*
X18134494Y-36184463D01*
X18024180Y-36125498D01*
X17904482Y-36089188D01*
X17780000Y-36076928D01*
X12827000Y-36076928D01*
X12827000Y-34602899D01*
X14954250Y-34600000D01*
X15113000Y-34441250D01*
X15113000Y-33342000D01*
X15367000Y-33342000D01*
X15367000Y-34441250D01*
X15525750Y-34600000D01*
X17780000Y-34603072D01*
X17904482Y-34590812D01*
X18024180Y-34554502D01*
X18134494Y-34495537D01*
X18231185Y-34416185D01*
X18310537Y-34319494D01*
X18369502Y-34209180D01*
X18405812Y-34089482D01*
X18418072Y-33965000D01*
X18415000Y-33500750D01*
X18256250Y-33342000D01*
X15367000Y-33342000D01*
X15113000Y-33342000D01*
X15093000Y-33342000D01*
X15093000Y-33088000D01*
X15113000Y-33088000D01*
X15113000Y-31988750D01*
X15367000Y-31988750D01*
X15367000Y-33088000D01*
X18256250Y-33088000D01*
X18415000Y-32929250D01*
X18418072Y-32465000D01*
X18405812Y-32340518D01*
X18369502Y-32220820D01*
X18310537Y-32110506D01*
X18231185Y-32013815D01*
X18134494Y-31934463D01*
X18024180Y-31875498D01*
X17904482Y-31839188D01*
X17780000Y-31826928D01*
X15525750Y-31830000D01*
X15367000Y-31988750D01*
X15113000Y-31988750D01*
X14954250Y-31830000D01*
X12827000Y-31827101D01*
X12827000Y-24859580D01*
X28610025Y-24859580D01*
X29066197Y-25431185D01*
X29866183Y-25871207D01*
X30736641Y-26146704D01*
X31644121Y-26247091D01*
X32553748Y-26168508D01*
X33430566Y-25913975D01*
X34240879Y-25493275D01*
X34333803Y-25431185D01*
X34789975Y-24859580D01*
X31700000Y-21769605D01*
X28610025Y-24859580D01*
X12827000Y-24859580D01*
X12827000Y-21534121D01*
X27042909Y-21534121D01*
X27121492Y-22443748D01*
X27376025Y-23320566D01*
X27796725Y-24130879D01*
X27858815Y-24223803D01*
X28430420Y-24679975D01*
X31520395Y-21590000D01*
X31879605Y-21590000D01*
X34969580Y-24679975D01*
X35541185Y-24223803D01*
X35981207Y-23423817D01*
X36256704Y-22553359D01*
X36357091Y-21645879D01*
X36312826Y-21133492D01*
X46165000Y-21133492D01*
X46165000Y-22046508D01*
X46343120Y-22941980D01*
X46692516Y-23785496D01*
X47199760Y-24544640D01*
X47845360Y-25190240D01*
X48604504Y-25697484D01*
X49448020Y-26046880D01*
X50343492Y-26225000D01*
X51256508Y-26225000D01*
X52151980Y-26046880D01*
X52995496Y-25697484D01*
X53754640Y-25190240D01*
X54400240Y-24544640D01*
X54907484Y-23785496D01*
X55256880Y-22941980D01*
X55349768Y-22475000D01*
X70620479Y-22475000D01*
X70640363Y-22504759D01*
X70840241Y-22704637D01*
X71075273Y-22861680D01*
X71336426Y-22969853D01*
X71613665Y-23025000D01*
X71896335Y-23025000D01*
X72173574Y-22969853D01*
X72434727Y-22861680D01*
X72669759Y-22704637D01*
X72869637Y-22504759D01*
X73026680Y-22269727D01*
X73134853Y-22008574D01*
X73190000Y-21731335D01*
X73190000Y-21448665D01*
X73134853Y-21171426D01*
X73026680Y-20910273D01*
X72869637Y-20675241D01*
X72669759Y-20475363D01*
X72434727Y-20318320D01*
X72173574Y-20210147D01*
X71896335Y-20155000D01*
X71613665Y-20155000D01*
X71336426Y-20210147D01*
X71075273Y-20318320D01*
X70840241Y-20475363D01*
X70640363Y-20675241D01*
X70620479Y-20705000D01*
X55349768Y-20705000D01*
X55256880Y-20238020D01*
X54907484Y-19394504D01*
X54400240Y-18635360D01*
X53754640Y-17989760D01*
X52995496Y-17482516D01*
X52151980Y-17133120D01*
X51256508Y-16955000D01*
X50343492Y-16955000D01*
X49448020Y-17133120D01*
X48604504Y-17482516D01*
X47845360Y-17989760D01*
X47199760Y-18635360D01*
X46692516Y-19394504D01*
X46343120Y-20238020D01*
X46165000Y-21133492D01*
X36312826Y-21133492D01*
X36278508Y-20736252D01*
X36023975Y-19859434D01*
X35603275Y-19049121D01*
X35541185Y-18956197D01*
X34969580Y-18500025D01*
X31879605Y-21590000D01*
X31520395Y-21590000D01*
X28430420Y-18500025D01*
X27858815Y-18956197D01*
X27418793Y-19756183D01*
X27143296Y-20626641D01*
X27042909Y-21534121D01*
X12827000Y-21534121D01*
X12827000Y-18320420D01*
X28610025Y-18320420D01*
X31700000Y-21410395D01*
X34789975Y-18320420D01*
X34333803Y-17748815D01*
X33533817Y-17308793D01*
X32663359Y-17033296D01*
X31755879Y-16932909D01*
X30846252Y-17011492D01*
X29969434Y-17266025D01*
X29159121Y-17686725D01*
X29066197Y-17748815D01*
X28610025Y-18320420D01*
X12827000Y-18320420D01*
X12827000Y-12827000D01*
X83058000Y-12827000D01*
X83058000Y-57658000D01*
G37*
X83058000Y-57658000D02*
X12827000Y-57658000D01*
X12827000Y-53617702D01*
X49986903Y-53617702D01*
X50058486Y-53861671D01*
X50313996Y-53982571D01*
X50588184Y-54051300D01*
X50870512Y-54065217D01*
X51150130Y-54023787D01*
X51416292Y-53928603D01*
X51541514Y-53861671D01*
X51613097Y-53617702D01*
X50800000Y-52804605D01*
X49986903Y-53617702D01*
X12827000Y-53617702D01*
X12827000Y-52695512D01*
X49359783Y-52695512D01*
X49401213Y-52975130D01*
X49496397Y-53241292D01*
X49563329Y-53366514D01*
X49807298Y-53438097D01*
X50620395Y-52625000D01*
X50979605Y-52625000D01*
X51792702Y-53438097D01*
X52036671Y-53366514D01*
X52157571Y-53111004D01*
X52226300Y-52836816D01*
X52240217Y-52554488D01*
X52198787Y-52274870D01*
X52103603Y-52008708D01*
X52036671Y-51883486D01*
X51792702Y-51811903D01*
X50979605Y-52625000D01*
X50620395Y-52625000D01*
X49807298Y-51811903D01*
X49563329Y-51883486D01*
X49442429Y-52138996D01*
X49373700Y-52413184D01*
X49359783Y-52695512D01*
X12827000Y-52695512D01*
X12827000Y-51632298D01*
X49986903Y-51632298D01*
X50800000Y-52445395D01*
X51613097Y-51632298D01*
X51541514Y-51388329D01*
X51286004Y-51267429D01*
X51011816Y-51198700D01*
X50729488Y-51184783D01*
X50449870Y-51226213D01*
X50183708Y-51321397D01*
X50058486Y-51388329D01*
X49986903Y-51632298D01*
X12827000Y-51632298D01*
X12827000Y-43102899D01*
X14954250Y-43100000D01*
X15113000Y-42941250D01*
X15113000Y-41842000D01*
X15367000Y-41842000D01*
X15367000Y-42941250D01*
X15525750Y-43100000D01*
X17780000Y-43103072D01*
X17904482Y-43090812D01*
X18024180Y-43054502D01*
X18134494Y-42995537D01*
X18231185Y-42916185D01*
X18310537Y-42819494D01*
X18369502Y-42709180D01*
X18405812Y-42589482D01*
X18418072Y-42465000D01*
X18415000Y-42000750D01*
X18256250Y-41842000D01*
X15367000Y-41842000D01*
X15113000Y-41842000D01*
X15093000Y-41842000D01*
X15093000Y-41588000D01*
X15113000Y-41588000D01*
X15113000Y-40488750D01*
X15367000Y-40488750D01*
X15367000Y-41588000D01*
X18256250Y-41588000D01*
X18415000Y-41429250D01*
X18418072Y-40965000D01*
X18405812Y-40840518D01*
X18369502Y-40720820D01*
X18310537Y-40610506D01*
X18231185Y-40513815D01*
X18134494Y-40434463D01*
X18024180Y-40375498D01*
X17904482Y-40339188D01*
X17780000Y-40326928D01*
X15525750Y-40330000D01*
X15367000Y-40488750D01*
X15113000Y-40488750D01*
X14954250Y-40330000D01*
X12827000Y-40327101D01*
X12827000Y-38853072D01*
X17780000Y-38853072D01*
X17904482Y-38840812D01*
X18024180Y-38804502D01*
X18134494Y-38745537D01*
X18231185Y-38666185D01*
X18310537Y-38569494D01*
X18369502Y-38459180D01*
X18402621Y-38350000D01*
X42045479Y-38350000D01*
X42065363Y-38379759D01*
X42265241Y-38579637D01*
X42497759Y-38735000D01*
X42265241Y-38890363D01*
X42065363Y-39090241D01*
X41908320Y-39325273D01*
X41800147Y-39586426D01*
X41745000Y-39863665D01*
X41745000Y-40146335D01*
X41800147Y-40423574D01*
X41908320Y-40684727D01*
X42065363Y-40919759D01*
X42265241Y-41119637D01*
X42500273Y-41276680D01*
X42761426Y-41384853D01*
X43038665Y-41440000D01*
X43321335Y-41440000D01*
X43598574Y-41384853D01*
X43859727Y-41276680D01*
X44094759Y-41119637D01*
X44294637Y-40919759D01*
X44451680Y-40684727D01*
X44559853Y-40423574D01*
X44615000Y-40146335D01*
X44615000Y-39863665D01*
X44608017Y-39828561D01*
X49365870Y-35070709D01*
X49420147Y-35343574D01*
X49528320Y-35604727D01*
X49685363Y-35839759D01*
X49885241Y-36039637D01*
X50117759Y-36195000D01*
X49885241Y-36350363D01*
X49685363Y-36550241D01*
X49528320Y-36785273D01*
X49420147Y-37046426D01*
X49365000Y-37323665D01*
X49365000Y-37606335D01*
X49371983Y-37641439D01*
X47029956Y-39983466D01*
X46996183Y-40011183D01*
X46885589Y-40145942D01*
X46803411Y-40299688D01*
X46752805Y-40466511D01*
X46740000Y-40596524D01*
X46740000Y-40596531D01*
X46735719Y-40640000D01*
X46740000Y-40683469D01*
X46740001Y-42930000D01*
X39413469Y-42930000D01*
X39370000Y-42925719D01*
X39326531Y-42930000D01*
X39326523Y-42930000D01*
X39196510Y-42942805D01*
X39029686Y-42993411D01*
X38958659Y-43031375D01*
X38876335Y-43015000D01*
X38593665Y-43015000D01*
X38316426Y-43070147D01*
X38055273Y-43178320D01*
X37820241Y-43335363D01*
X37620363Y-43535241D01*
X37463320Y-43770273D01*
X37355147Y-44031426D01*
X37300000Y-44308665D01*
X37300000Y-44591335D01*
X37355147Y-44868574D01*
X37463320Y-45129727D01*
X37620363Y-45364759D01*
X37820241Y-45564637D01*
X38055273Y-45721680D01*
X38316426Y-45829853D01*
X38593665Y-45885000D01*
X38876335Y-45885000D01*
X39153574Y-45829853D01*
X39414727Y-45721680D01*
X39649759Y-45564637D01*
X39849637Y-45364759D01*
X40006680Y-45129727D01*
X40114853Y-44868574D01*
X40148385Y-44700000D01*
X47581524Y-44700000D01*
X47625000Y-44704282D01*
X47798490Y-44687195D01*
X47965313Y-44636589D01*
X48119059Y-44554411D01*
X48253817Y-44443817D01*
X48364411Y-44309059D01*
X48446589Y-44155313D01*
X48497195Y-43988490D01*
X48510000Y-43858477D01*
X48514282Y-43815000D01*
X48510000Y-43771523D01*
X48510000Y-41006578D01*
X49365870Y-40150708D01*
X49420147Y-40423574D01*
X49528320Y-40684727D01*
X49685363Y-40919759D01*
X49885241Y-41119637D01*
X49915001Y-41139522D01*
X49915000Y-46195299D01*
X49875518Y-46199188D01*
X49755820Y-46235498D01*
X49645506Y-46294463D01*
X49548815Y-46373815D01*
X49469463Y-46470506D01*
X49410498Y-46580820D01*
X49374188Y-46700518D01*
X49361928Y-46825000D01*
X49361928Y-48425000D01*
X49374188Y-48549482D01*
X49410498Y-48669180D01*
X49469463Y-48779494D01*
X49548815Y-48876185D01*
X49645506Y-48955537D01*
X49755820Y-49014502D01*
X49875518Y-49050812D01*
X50000000Y-49063072D01*
X51600000Y-49063072D01*
X51724482Y-49050812D01*
X51844180Y-49014502D01*
X51954494Y-48955537D01*
X52051185Y-48876185D01*
X52130537Y-48779494D01*
X52189502Y-48669180D01*
X52225812Y-48549482D01*
X52226972Y-48537702D01*
X62051903Y-48537702D01*
X62123486Y-48781671D01*
X62378996Y-48902571D01*
X62653184Y-48971300D01*
X62935512Y-48985217D01*
X63215130Y-48943787D01*
X63481292Y-48848603D01*
X63606514Y-48781671D01*
X63678097Y-48537702D01*
X62865000Y-47724605D01*
X62051903Y-48537702D01*
X52226972Y-48537702D01*
X52238072Y-48425000D01*
X52238072Y-47615512D01*
X61424783Y-47615512D01*
X61466213Y-47895130D01*
X61561397Y-48161292D01*
X61628329Y-48286514D01*
X61872298Y-48358097D01*
X62685395Y-47545000D01*
X63044605Y-47545000D01*
X63857702Y-48358097D01*
X64101671Y-48286514D01*
X64222571Y-48031004D01*
X64291300Y-47756816D01*
X64305217Y-47474488D01*
X64263787Y-47194870D01*
X64168603Y-46928708D01*
X64101671Y-46803486D01*
X63857702Y-46731903D01*
X63044605Y-47545000D01*
X62685395Y-47545000D01*
X61872298Y-46731903D01*
X61628329Y-46803486D01*
X61507429Y-47058996D01*
X61438700Y-47333184D01*
X61424783Y-47615512D01*
X52238072Y-47615512D01*
X52238072Y-46825000D01*
X52225812Y-46700518D01*
X52189502Y-46580820D01*
X52174257Y-46552298D01*
X62051903Y-46552298D01*
X62865000Y-47365395D01*
X63678097Y-46552298D01*
X63606514Y-46308329D01*
X63351004Y-46187429D01*
X63076816Y-46118700D01*
X62794488Y-46104783D01*
X62514870Y-46146213D01*
X62248708Y-46241397D01*
X62123486Y-46308329D01*
X62051903Y-46552298D01*
X52174257Y-46552298D01*
X52130537Y-46470506D01*
X52051185Y-46373815D01*
X51954494Y-46294463D01*
X51844180Y-46235498D01*
X51724482Y-46199188D01*
X51685000Y-46195299D01*
X51685000Y-41139521D01*
X51714759Y-41119637D01*
X51914637Y-40919759D01*
X52071680Y-40684727D01*
X52179853Y-40423574D01*
X52235000Y-40146335D01*
X52235000Y-39863665D01*
X52179853Y-39586426D01*
X52071680Y-39325273D01*
X51914637Y-39090241D01*
X51714759Y-38890363D01*
X51482241Y-38735000D01*
X51714759Y-38579637D01*
X51914637Y-38379759D01*
X51934521Y-38350000D01*
X52440022Y-38350000D01*
X55096470Y-41006449D01*
X55124183Y-41040217D01*
X55157951Y-41067930D01*
X55157953Y-41067932D01*
X55220956Y-41119637D01*
X55258941Y-41150811D01*
X55412687Y-41232989D01*
X55579510Y-41283595D01*
X55709523Y-41296400D01*
X55709531Y-41296400D01*
X55753000Y-41300681D01*
X55796469Y-41296400D01*
X60364822Y-41296400D01*
X61426928Y-42358507D01*
X61426928Y-43345000D01*
X61439188Y-43469482D01*
X61475498Y-43589180D01*
X61534463Y-43699494D01*
X61613815Y-43796185D01*
X61710506Y-43875537D01*
X61820820Y-43934502D01*
X61940518Y-43970812D01*
X62065000Y-43983072D01*
X63665000Y-43983072D01*
X63789482Y-43970812D01*
X63909180Y-43934502D01*
X64019494Y-43875537D01*
X64116185Y-43796185D01*
X64195537Y-43699494D01*
X64254502Y-43589180D01*
X64290812Y-43469482D01*
X64294701Y-43430000D01*
X70620479Y-43430000D01*
X70640363Y-43459759D01*
X70840241Y-43659637D01*
X71075273Y-43816680D01*
X71336426Y-43924853D01*
X71613665Y-43980000D01*
X71896335Y-43980000D01*
X72173574Y-43924853D01*
X72434727Y-43816680D01*
X72669759Y-43659637D01*
X72869637Y-43459759D01*
X73026680Y-43224727D01*
X73134853Y-42963574D01*
X73190000Y-42686335D01*
X73190000Y-42403665D01*
X73134853Y-42126426D01*
X73026680Y-41865273D01*
X72869637Y-41630241D01*
X72669759Y-41430363D01*
X72434727Y-41273320D01*
X72173574Y-41165147D01*
X71896335Y-41110000D01*
X71613665Y-41110000D01*
X71336426Y-41165147D01*
X71075273Y-41273320D01*
X70840241Y-41430363D01*
X70640363Y-41630241D01*
X70620479Y-41660000D01*
X64294701Y-41660000D01*
X64290812Y-41620518D01*
X64254502Y-41500820D01*
X64195537Y-41390506D01*
X64116185Y-41293815D01*
X64019494Y-41214463D01*
X63909180Y-41155498D01*
X63789482Y-41119188D01*
X63665000Y-41106928D01*
X62678507Y-41106928D01*
X61387934Y-39816356D01*
X61360217Y-39782583D01*
X61225459Y-39671989D01*
X61071713Y-39589811D01*
X60904890Y-39539205D01*
X60774877Y-39526400D01*
X60774869Y-39526400D01*
X60731400Y-39522119D01*
X60687931Y-39526400D01*
X56119579Y-39526400D01*
X53463134Y-36869956D01*
X53435417Y-36836183D01*
X53300659Y-36725589D01*
X53146913Y-36643411D01*
X52980090Y-36592805D01*
X52850077Y-36580000D01*
X52850069Y-36580000D01*
X52806600Y-36575719D01*
X52763131Y-36580000D01*
X51934521Y-36580000D01*
X51914637Y-36550241D01*
X51714759Y-36350363D01*
X51482241Y-36195000D01*
X51714759Y-36039637D01*
X51914637Y-35839759D01*
X51934521Y-35810000D01*
X70620479Y-35810000D01*
X70640363Y-35839759D01*
X70840241Y-36039637D01*
X71075273Y-36196680D01*
X71336426Y-36304853D01*
X71613665Y-36360000D01*
X71896335Y-36360000D01*
X72173574Y-36304853D01*
X72434727Y-36196680D01*
X72669759Y-36039637D01*
X72869637Y-35839759D01*
X73026680Y-35604727D01*
X73134853Y-35343574D01*
X73190000Y-35066335D01*
X73190000Y-34783665D01*
X73134853Y-34506426D01*
X73026680Y-34245273D01*
X72869637Y-34010241D01*
X72669759Y-33810363D01*
X72640000Y-33790479D01*
X72640000Y-30344521D01*
X72669759Y-30324637D01*
X72869637Y-30124759D01*
X73026680Y-29889727D01*
X73134853Y-29628574D01*
X73190000Y-29351335D01*
X73190000Y-29068665D01*
X73134853Y-28791426D01*
X73026680Y-28530273D01*
X72869637Y-28295241D01*
X72669759Y-28095363D01*
X72434727Y-27938320D01*
X72173574Y-27830147D01*
X71896335Y-27775000D01*
X71613665Y-27775000D01*
X71336426Y-27830147D01*
X71075273Y-27938320D01*
X70840241Y-28095363D01*
X70640363Y-28295241D01*
X70483320Y-28530273D01*
X70375147Y-28791426D01*
X70320000Y-29068665D01*
X70320000Y-29351335D01*
X70375147Y-29628574D01*
X70483320Y-29889727D01*
X70640363Y-30124759D01*
X70840241Y-30324637D01*
X70870000Y-30344521D01*
X70870001Y-33790478D01*
X70840241Y-33810363D01*
X70640363Y-34010241D01*
X70620479Y-34040000D01*
X51934521Y-34040000D01*
X51914637Y-34010241D01*
X51714759Y-33810363D01*
X51482241Y-33655000D01*
X51714759Y-33499637D01*
X51914637Y-33299759D01*
X52071680Y-33064727D01*
X52179853Y-32803574D01*
X52235000Y-32526335D01*
X52235000Y-32243665D01*
X52179853Y-31966426D01*
X52071680Y-31705273D01*
X51914637Y-31470241D01*
X51714759Y-31270363D01*
X51479727Y-31113320D01*
X51218574Y-31005147D01*
X50941335Y-30950000D01*
X50658665Y-30950000D01*
X50381426Y-31005147D01*
X50120273Y-31113320D01*
X49885241Y-31270363D01*
X49685363Y-31470241D01*
X49528320Y-31705273D01*
X49420147Y-31966426D01*
X49365000Y-32243665D01*
X49365000Y-32526335D01*
X49371983Y-32561438D01*
X44614130Y-37319292D01*
X44559853Y-37046426D01*
X44451680Y-36785273D01*
X44294637Y-36550241D01*
X44094759Y-36350363D01*
X43862241Y-36195000D01*
X44094759Y-36039637D01*
X44294637Y-35839759D01*
X44451680Y-35604727D01*
X44559853Y-35343574D01*
X44615000Y-35066335D01*
X44615000Y-34783665D01*
X44559853Y-34506426D01*
X44451680Y-34245273D01*
X44294637Y-34010241D01*
X44096039Y-33811643D01*
X44104482Y-33810812D01*
X44224180Y-33774502D01*
X44334494Y-33715537D01*
X44431185Y-33636185D01*
X44510537Y-33539494D01*
X44569502Y-33429180D01*
X44605812Y-33309482D01*
X44618072Y-33185000D01*
X44615000Y-32670750D01*
X44456250Y-32512000D01*
X43307000Y-32512000D01*
X43307000Y-32532000D01*
X43053000Y-32532000D01*
X43053000Y-32512000D01*
X41903750Y-32512000D01*
X41745000Y-32670750D01*
X41741928Y-33185000D01*
X41754188Y-33309482D01*
X41790498Y-33429180D01*
X41849463Y-33539494D01*
X41928815Y-33636185D01*
X42025506Y-33715537D01*
X42135820Y-33774502D01*
X42255518Y-33810812D01*
X42263961Y-33811643D01*
X42156091Y-33919513D01*
X40163017Y-31926439D01*
X40170000Y-31891335D01*
X40170000Y-31608665D01*
X40165293Y-31585000D01*
X41741928Y-31585000D01*
X41745000Y-32099250D01*
X41903750Y-32258000D01*
X43053000Y-32258000D01*
X43053000Y-31108750D01*
X43307000Y-31108750D01*
X43307000Y-32258000D01*
X44456250Y-32258000D01*
X44615000Y-32099250D01*
X44618072Y-31585000D01*
X44605812Y-31460518D01*
X44569502Y-31340820D01*
X44510537Y-31230506D01*
X44431185Y-31133815D01*
X44334494Y-31054463D01*
X44224180Y-30995498D01*
X44104482Y-30959188D01*
X43980000Y-30946928D01*
X43465750Y-30950000D01*
X43307000Y-31108750D01*
X43053000Y-31108750D01*
X42894250Y-30950000D01*
X42380000Y-30946928D01*
X42255518Y-30959188D01*
X42135820Y-30995498D01*
X42025506Y-31054463D01*
X41928815Y-31133815D01*
X41849463Y-31230506D01*
X41790498Y-31340820D01*
X41754188Y-31460518D01*
X41741928Y-31585000D01*
X40165293Y-31585000D01*
X40114853Y-31331426D01*
X40006680Y-31070273D01*
X39849637Y-30835241D01*
X39649759Y-30635363D01*
X39414727Y-30478320D01*
X39153574Y-30370147D01*
X38876335Y-30315000D01*
X38593665Y-30315000D01*
X38316426Y-30370147D01*
X38055273Y-30478320D01*
X37820241Y-30635363D01*
X37620363Y-30835241D01*
X37463320Y-31070273D01*
X37355147Y-31331426D01*
X37300000Y-31608665D01*
X37300000Y-31891335D01*
X37355147Y-32168574D01*
X37463320Y-32429727D01*
X37620363Y-32664759D01*
X37820241Y-32864637D01*
X38055273Y-33021680D01*
X38316426Y-33129853D01*
X38593665Y-33185000D01*
X38876335Y-33185000D01*
X38911439Y-33178017D01*
X41253470Y-35520049D01*
X41281183Y-35553817D01*
X41314951Y-35581530D01*
X41314953Y-35581532D01*
X41343216Y-35604727D01*
X41415941Y-35664411D01*
X41569687Y-35746589D01*
X41736510Y-35797195D01*
X41866523Y-35810000D01*
X41866533Y-35810000D01*
X41909999Y-35814281D01*
X41953466Y-35810000D01*
X42045479Y-35810000D01*
X42065363Y-35839759D01*
X42265241Y-36039637D01*
X42497759Y-36195000D01*
X42265241Y-36350363D01*
X42065363Y-36550241D01*
X42045479Y-36580000D01*
X18402621Y-36580000D01*
X18369502Y-36470820D01*
X18310537Y-36360506D01*
X18231185Y-36263815D01*
X18134494Y-36184463D01*
X18024180Y-36125498D01*
X17904482Y-36089188D01*
X17780000Y-36076928D01*
X12827000Y-36076928D01*
X12827000Y-34602899D01*
X14954250Y-34600000D01*
X15113000Y-34441250D01*
X15113000Y-33342000D01*
X15367000Y-33342000D01*
X15367000Y-34441250D01*
X15525750Y-34600000D01*
X17780000Y-34603072D01*
X17904482Y-34590812D01*
X18024180Y-34554502D01*
X18134494Y-34495537D01*
X18231185Y-34416185D01*
X18310537Y-34319494D01*
X18369502Y-34209180D01*
X18405812Y-34089482D01*
X18418072Y-33965000D01*
X18415000Y-33500750D01*
X18256250Y-33342000D01*
X15367000Y-33342000D01*
X15113000Y-33342000D01*
X15093000Y-33342000D01*
X15093000Y-33088000D01*
X15113000Y-33088000D01*
X15113000Y-31988750D01*
X15367000Y-31988750D01*
X15367000Y-33088000D01*
X18256250Y-33088000D01*
X18415000Y-32929250D01*
X18418072Y-32465000D01*
X18405812Y-32340518D01*
X18369502Y-32220820D01*
X18310537Y-32110506D01*
X18231185Y-32013815D01*
X18134494Y-31934463D01*
X18024180Y-31875498D01*
X17904482Y-31839188D01*
X17780000Y-31826928D01*
X15525750Y-31830000D01*
X15367000Y-31988750D01*
X15113000Y-31988750D01*
X14954250Y-31830000D01*
X12827000Y-31827101D01*
X12827000Y-24859580D01*
X28610025Y-24859580D01*
X29066197Y-25431185D01*
X29866183Y-25871207D01*
X30736641Y-26146704D01*
X31644121Y-26247091D01*
X32553748Y-26168508D01*
X33430566Y-25913975D01*
X34240879Y-25493275D01*
X34333803Y-25431185D01*
X34789975Y-24859580D01*
X31700000Y-21769605D01*
X28610025Y-24859580D01*
X12827000Y-24859580D01*
X12827000Y-21534121D01*
X27042909Y-21534121D01*
X27121492Y-22443748D01*
X27376025Y-23320566D01*
X27796725Y-24130879D01*
X27858815Y-24223803D01*
X28430420Y-24679975D01*
X31520395Y-21590000D01*
X31879605Y-21590000D01*
X34969580Y-24679975D01*
X35541185Y-24223803D01*
X35981207Y-23423817D01*
X36256704Y-22553359D01*
X36357091Y-21645879D01*
X36312826Y-21133492D01*
X46165000Y-21133492D01*
X46165000Y-22046508D01*
X46343120Y-22941980D01*
X46692516Y-23785496D01*
X47199760Y-24544640D01*
X47845360Y-25190240D01*
X48604504Y-25697484D01*
X49448020Y-26046880D01*
X50343492Y-26225000D01*
X51256508Y-26225000D01*
X52151980Y-26046880D01*
X52995496Y-25697484D01*
X53754640Y-25190240D01*
X54400240Y-24544640D01*
X54907484Y-23785496D01*
X55256880Y-22941980D01*
X55349768Y-22475000D01*
X70620479Y-22475000D01*
X70640363Y-22504759D01*
X70840241Y-22704637D01*
X71075273Y-22861680D01*
X71336426Y-22969853D01*
X71613665Y-23025000D01*
X71896335Y-23025000D01*
X72173574Y-22969853D01*
X72434727Y-22861680D01*
X72669759Y-22704637D01*
X72869637Y-22504759D01*
X73026680Y-22269727D01*
X73134853Y-22008574D01*
X73190000Y-21731335D01*
X73190000Y-21448665D01*
X73134853Y-21171426D01*
X73026680Y-20910273D01*
X72869637Y-20675241D01*
X72669759Y-20475363D01*
X72434727Y-20318320D01*
X72173574Y-20210147D01*
X71896335Y-20155000D01*
X71613665Y-20155000D01*
X71336426Y-20210147D01*
X71075273Y-20318320D01*
X70840241Y-20475363D01*
X70640363Y-20675241D01*
X70620479Y-20705000D01*
X55349768Y-20705000D01*
X55256880Y-20238020D01*
X54907484Y-19394504D01*
X54400240Y-18635360D01*
X53754640Y-17989760D01*
X52995496Y-17482516D01*
X52151980Y-17133120D01*
X51256508Y-16955000D01*
X50343492Y-16955000D01*
X49448020Y-17133120D01*
X48604504Y-17482516D01*
X47845360Y-17989760D01*
X47199760Y-18635360D01*
X46692516Y-19394504D01*
X46343120Y-20238020D01*
X46165000Y-21133492D01*
X36312826Y-21133492D01*
X36278508Y-20736252D01*
X36023975Y-19859434D01*
X35603275Y-19049121D01*
X35541185Y-18956197D01*
X34969580Y-18500025D01*
X31879605Y-21590000D01*
X31520395Y-21590000D01*
X28430420Y-18500025D01*
X27858815Y-18956197D01*
X27418793Y-19756183D01*
X27143296Y-20626641D01*
X27042909Y-21534121D01*
X12827000Y-21534121D01*
X12827000Y-18320420D01*
X28610025Y-18320420D01*
X31700000Y-21410395D01*
X34789975Y-18320420D01*
X34333803Y-17748815D01*
X33533817Y-17308793D01*
X32663359Y-17033296D01*
X31755879Y-16932909D01*
X30846252Y-17011492D01*
X29969434Y-17266025D01*
X29159121Y-17686725D01*
X29066197Y-17748815D01*
X28610025Y-18320420D01*
X12827000Y-18320420D01*
X12827000Y-12827000D01*
X83058000Y-12827000D01*
X83058000Y-57658000D01*
%TD*%
M02*
