M48
; DRILL file {KiCad 5.1.5+dfsg1-2build2} date Sat 13 Feb 2021 12:36:59 PM PST
; FORMAT={-:-/ absolute / inch / decimal}
; #@! TF.CreationDate,2021-02-13T12:36:59-08:00
; #@! TF.GenerationSoftware,Kicad,Pcbnew,5.1.5+dfsg1-2build2
; #@! TF.FileFunction,Plated,1,2,PTH
FMAT,2
INCH
T1C0.0315
T2C0.1378
%
G90
G05
T1
X1.525Y-1.25
X1.525Y-1.75
X2.475Y-1.675
X2.475Y-1.8719
X2.825Y-0.85
X2.825Y-1.15
X2.825Y-1.375
X2.825Y-1.675
X1.7Y-1.275
X1.7Y-1.375
X1.7Y-1.475
X1.7Y-1.575
X2.0Y-1.275
X2.0Y-1.375
X2.0Y-1.475
X2.0Y-1.575
X2.0Y-1.875
X2.0Y-2.0719
T2
X1.248Y-0.85
X2.0Y-0.85
T0
M30
