%TF.GenerationSoftware,KiCad,Pcbnew,5.99.0-unknown-d430fae05d~122~ubuntu20.04.1*%
%TF.CreationDate,2021-03-24T14:17:41-07:00*%
%TF.ProjectId,laser-diode-butterfly-mount,6c617365-722d-4646-996f-64652d627574,rev?*%
%TF.SameCoordinates,Original*%
%TF.FileFunction,Copper,L1,Top*%
%TF.FilePolarity,Positive*%
%FSLAX46Y46*%
G04 Gerber Fmt 4.6, Leading zero omitted, Abs format (unit mm)*
G04 Created by KiCad (PCBNEW 5.99.0-unknown-d430fae05d~122~ubuntu20.04.1) date 2021-03-24 14:17:41*
%MOMM*%
%LPD*%
G01*
G04 APERTURE LIST*
%TA.AperFunction,SMDPad,CuDef*%
%ADD10R,16.500000X1.400000*%
%TD*%
%TA.AperFunction,ComponentPad*%
%ADD11C,1.700000*%
%TD*%
%TA.AperFunction,ComponentPad*%
%ADD12O,1.700000X1.700000*%
%TD*%
%TA.AperFunction,Conductor*%
%ADD13C,0.500000*%
%TD*%
%TA.AperFunction,Conductor*%
%ADD14C,0.250000*%
%TD*%
G04 APERTURE END LIST*
D10*
%TO.P,J1,1,Pin_1*%
%TO.N,Net-(J1-Pad1)*%
X54208000Y-63180000D03*
%TO.P,J1,2,Pin_2*%
%TO.N,Net-(J1-Pad2)*%
X54208000Y-65720000D03*
%TO.P,J1,3,Pin_3*%
%TO.N,Net-(J1-Pad3)*%
X54208000Y-68260000D03*
%TO.P,J1,4,Pin_4*%
%TO.N,Net-(J1-Pad4)*%
X54208000Y-70800000D03*
%TO.P,J1,5,Pin_5*%
%TO.N,Net-(J1-Pad5)*%
X54208000Y-73340000D03*
%TO.P,J1,6,Pin_6*%
%TO.N,Net-(J1-Pad6)*%
X54208000Y-75880000D03*
%TO.P,J1,7,Pin_7*%
%TO.N,Net-(J1-Pad7)*%
X54208000Y-78420000D03*
%TO.P,J1,8,Pin_8*%
%TO.N,GND*%
X86400000Y-78380000D03*
%TO.P,J1,9,Pin_9*%
X86400000Y-75840000D03*
%TO.P,J1,10,Pin_10*%
%TO.N,Net-(J1-Pad10)*%
X86400000Y-73300000D03*
%TO.P,J1,11,Pin_11*%
%TO.N,Net-(J1-Pad11)*%
X86400000Y-70760000D03*
%TO.P,J1,12,Pin_12*%
%TO.N,Net-(J1-Pad12)*%
X86400000Y-68220000D03*
%TO.P,J1,13,Pin_13*%
%TO.N,Net-(J1-Pad13)*%
X86400000Y-65680000D03*
%TO.P,J1,14,Pin_14*%
%TO.N,Net-(J1-Pad14)*%
X86400000Y-63140000D03*
%TD*%
D11*
%TO.P,RightHeader1,1,Pin_1*%
%TO.N,Net-(J1-Pad14)*%
X102680000Y-63170000D03*
D12*
%TO.P,RightHeader1,2,Pin_2*%
%TO.N,Net-(J1-Pad13)*%
X102680000Y-65710000D03*
%TO.P,RightHeader1,3,Pin_3*%
%TO.N,Net-(J1-Pad12)*%
X102680000Y-68250000D03*
%TO.P,RightHeader1,4,Pin_4*%
%TO.N,Net-(J1-Pad11)*%
X102680000Y-70790000D03*
%TO.P,RightHeader1,5,Pin_5*%
%TO.N,Net-(J1-Pad10)*%
X102680000Y-73330000D03*
%TO.P,RightHeader1,6,Pin_6*%
%TO.N,GND*%
X102680000Y-75870000D03*
%TO.P,RightHeader1,7,Pin_7*%
X102680000Y-78410000D03*
%TD*%
D11*
%TO.P,LeftHeader1,1,Pin_1*%
%TO.N,Net-(J1-Pad1)*%
X37980000Y-63170000D03*
D12*
%TO.P,LeftHeader1,2,Pin_2*%
%TO.N,Net-(J1-Pad2)*%
X37980000Y-65710000D03*
%TO.P,LeftHeader1,3,Pin_3*%
%TO.N,Net-(J1-Pad3)*%
X37980000Y-68250000D03*
%TO.P,LeftHeader1,4,Pin_4*%
%TO.N,Net-(J1-Pad4)*%
X37980000Y-70790000D03*
%TO.P,LeftHeader1,5,Pin_5*%
%TO.N,Net-(J1-Pad5)*%
X37980000Y-73330000D03*
%TO.P,LeftHeader1,6,Pin_6*%
%TO.N,Net-(J1-Pad6)*%
X37980000Y-75870000D03*
%TO.P,LeftHeader1,7,Pin_7*%
%TO.N,Net-(J1-Pad7)*%
X37980000Y-78410000D03*
%TD*%
D13*
%TO.N,Net-(J1-Pad14)*%
X86400000Y-63140000D02*
X102650000Y-63140000D01*
%TO.N,Net-(J1-Pad13)*%
X86400000Y-65680000D02*
X102650000Y-65680000D01*
%TO.N,Net-(J1-Pad12)*%
X86400000Y-68220000D02*
X102650000Y-68220000D01*
%TO.N,Net-(J1-Pad11)*%
X86400000Y-70760000D02*
X102650000Y-70760000D01*
%TO.N,Net-(J1-Pad10)*%
X86400000Y-73300000D02*
X102650000Y-73300000D01*
D14*
%TO.N,GND*%
X102680000Y-75870000D02*
X102680000Y-78410000D01*
D13*
X86400000Y-78380000D02*
X102650000Y-78380000D01*
X86400000Y-75840000D02*
X102650000Y-75840000D01*
%TO.N,Net-(J1-Pad7)*%
X37980000Y-78410000D02*
X54198000Y-78410000D01*
%TO.N,Net-(J1-Pad6)*%
X37980000Y-75870000D02*
X54198000Y-75870000D01*
%TO.N,Net-(J1-Pad5)*%
X37980000Y-73330000D02*
X54198000Y-73330000D01*
%TO.N,Net-(J1-Pad4)*%
X37980000Y-70790000D02*
X54198000Y-70790000D01*
%TO.N,Net-(J1-Pad3)*%
X37980000Y-68250000D02*
X54198000Y-68250000D01*
%TO.N,Net-(J1-Pad2)*%
X37980000Y-65710000D02*
X54198000Y-65710000D01*
%TO.N,Net-(J1-Pad1)*%
X37980000Y-63170000D02*
X54198000Y-63170000D01*
%TD*%
%TA.AperFunction,Conductor*%
%TO.N,GND*%
G36*
X109942121Y-49920002D02*
G01*
X109988614Y-49973658D01*
X110000000Y-50026000D01*
X110000000Y-89874157D01*
X109979998Y-89942278D01*
X109926342Y-89988771D01*
X109874158Y-90000157D01*
X30125531Y-90099843D01*
X30057385Y-90079926D01*
X30010825Y-90026329D01*
X29999375Y-89974470D01*
X29948619Y-79772368D01*
X29866529Y-63272233D01*
X36620338Y-63272233D01*
X36657002Y-63499861D01*
X36731494Y-63718056D01*
X36841685Y-63920580D01*
X36984424Y-64101644D01*
X36988389Y-64105220D01*
X37151659Y-64252489D01*
X37151665Y-64252494D01*
X37155629Y-64256069D01*
X37160142Y-64258928D01*
X37160144Y-64258929D01*
X37278242Y-64333731D01*
X37325087Y-64387079D01*
X37335654Y-64457285D01*
X37306587Y-64522058D01*
X37276186Y-64547894D01*
X37181196Y-64605535D01*
X37181189Y-64605540D01*
X37176631Y-64608306D01*
X37172601Y-64611803D01*
X37012675Y-64750579D01*
X37002492Y-64759415D01*
X36999109Y-64763541D01*
X36999105Y-64763545D01*
X36943798Y-64830998D01*
X36856304Y-64937705D01*
X36742245Y-65138077D01*
X36663578Y-65354802D01*
X36662629Y-65360051D01*
X36662628Y-65360054D01*
X36640890Y-65480265D01*
X36622551Y-65581683D01*
X36622500Y-65587023D01*
X36621097Y-65733210D01*
X36620338Y-65812233D01*
X36657002Y-66039861D01*
X36731494Y-66258056D01*
X36841685Y-66460580D01*
X36984424Y-66641644D01*
X36988389Y-66645220D01*
X37151659Y-66792489D01*
X37151665Y-66792494D01*
X37155629Y-66796069D01*
X37160142Y-66798928D01*
X37160144Y-66798929D01*
X37278242Y-66873731D01*
X37325087Y-66927079D01*
X37335654Y-66997285D01*
X37306587Y-67062058D01*
X37276186Y-67087894D01*
X37181196Y-67145535D01*
X37181189Y-67145540D01*
X37176631Y-67148306D01*
X37172601Y-67151803D01*
X37012675Y-67290579D01*
X37002492Y-67299415D01*
X36999109Y-67303541D01*
X36999105Y-67303545D01*
X36943798Y-67370998D01*
X36856304Y-67477705D01*
X36742245Y-67678077D01*
X36663578Y-67894802D01*
X36662629Y-67900051D01*
X36662628Y-67900054D01*
X36640890Y-68020265D01*
X36622551Y-68121683D01*
X36622500Y-68127023D01*
X36621097Y-68273210D01*
X36620338Y-68352233D01*
X36657002Y-68579861D01*
X36731494Y-68798056D01*
X36841685Y-69000580D01*
X36984424Y-69181644D01*
X36988389Y-69185220D01*
X37151659Y-69332489D01*
X37151665Y-69332494D01*
X37155629Y-69336069D01*
X37160142Y-69338928D01*
X37160144Y-69338929D01*
X37278242Y-69413731D01*
X37325087Y-69467079D01*
X37335654Y-69537285D01*
X37306587Y-69602058D01*
X37276186Y-69627894D01*
X37181196Y-69685535D01*
X37181189Y-69685540D01*
X37176631Y-69688306D01*
X37172601Y-69691803D01*
X37012675Y-69830579D01*
X37002492Y-69839415D01*
X36999109Y-69843541D01*
X36999105Y-69843545D01*
X36943798Y-69910998D01*
X36856304Y-70017705D01*
X36742245Y-70218077D01*
X36663578Y-70434802D01*
X36662629Y-70440051D01*
X36662628Y-70440054D01*
X36640890Y-70560265D01*
X36622551Y-70661683D01*
X36622500Y-70667023D01*
X36621097Y-70813210D01*
X36620338Y-70892233D01*
X36657002Y-71119861D01*
X36731494Y-71338056D01*
X36841685Y-71540580D01*
X36984424Y-71721644D01*
X36988389Y-71725220D01*
X37151659Y-71872489D01*
X37151665Y-71872494D01*
X37155629Y-71876069D01*
X37160142Y-71878928D01*
X37160144Y-71878929D01*
X37278242Y-71953731D01*
X37325087Y-72007079D01*
X37335654Y-72077285D01*
X37306587Y-72142058D01*
X37276186Y-72167894D01*
X37181196Y-72225535D01*
X37181189Y-72225540D01*
X37176631Y-72228306D01*
X37172601Y-72231803D01*
X37012675Y-72370579D01*
X37002492Y-72379415D01*
X36999109Y-72383541D01*
X36999105Y-72383545D01*
X36943798Y-72450998D01*
X36856304Y-72557705D01*
X36742245Y-72758077D01*
X36663578Y-72974802D01*
X36662629Y-72980051D01*
X36662628Y-72980054D01*
X36640890Y-73100265D01*
X36622551Y-73201683D01*
X36622500Y-73207023D01*
X36621097Y-73353210D01*
X36620338Y-73432233D01*
X36657002Y-73659861D01*
X36731494Y-73878056D01*
X36841685Y-74080580D01*
X36984424Y-74261644D01*
X36988389Y-74265220D01*
X37151659Y-74412489D01*
X37151665Y-74412494D01*
X37155629Y-74416069D01*
X37160142Y-74418928D01*
X37160144Y-74418929D01*
X37278242Y-74493731D01*
X37325087Y-74547079D01*
X37335654Y-74617285D01*
X37306587Y-74682058D01*
X37276186Y-74707894D01*
X37181196Y-74765535D01*
X37181189Y-74765540D01*
X37176631Y-74768306D01*
X37172601Y-74771803D01*
X37012675Y-74910579D01*
X37002492Y-74919415D01*
X36999109Y-74923541D01*
X36999105Y-74923545D01*
X36932819Y-75004388D01*
X36856304Y-75097705D01*
X36853665Y-75102341D01*
X36853663Y-75102344D01*
X36791244Y-75211998D01*
X36742245Y-75298077D01*
X36663578Y-75514802D01*
X36662629Y-75520051D01*
X36662628Y-75520054D01*
X36645997Y-75612027D01*
X36622551Y-75741683D01*
X36620338Y-75972233D01*
X36657002Y-76199861D01*
X36731494Y-76418056D01*
X36841685Y-76620580D01*
X36984424Y-76801644D01*
X36988389Y-76805220D01*
X37151659Y-76952489D01*
X37151665Y-76952494D01*
X37155629Y-76956069D01*
X37160142Y-76958928D01*
X37160144Y-76958929D01*
X37278242Y-77033731D01*
X37325087Y-77087079D01*
X37335654Y-77157285D01*
X37306587Y-77222058D01*
X37276186Y-77247894D01*
X37181196Y-77305535D01*
X37181189Y-77305540D01*
X37176631Y-77308306D01*
X37172601Y-77311803D01*
X37012675Y-77450579D01*
X37002492Y-77459415D01*
X36999109Y-77463541D01*
X36999105Y-77463545D01*
X36932819Y-77544388D01*
X36856304Y-77637705D01*
X36853665Y-77642341D01*
X36853663Y-77642344D01*
X36791244Y-77751998D01*
X36742245Y-77838077D01*
X36663578Y-78054802D01*
X36662629Y-78060051D01*
X36662628Y-78060054D01*
X36645997Y-78152027D01*
X36622551Y-78281683D01*
X36620338Y-78512233D01*
X36657002Y-78739861D01*
X36731494Y-78958056D01*
X36841685Y-79160580D01*
X36984424Y-79341644D01*
X36988389Y-79345220D01*
X37151659Y-79492489D01*
X37151665Y-79492494D01*
X37155629Y-79496069D01*
X37160142Y-79498928D01*
X37160144Y-79498929D01*
X37170774Y-79505662D01*
X37350406Y-79619439D01*
X37563184Y-79708228D01*
X37568387Y-79709425D01*
X37568392Y-79709426D01*
X37782678Y-79758701D01*
X37782683Y-79758702D01*
X37787881Y-79759897D01*
X37793209Y-79760200D01*
X37793212Y-79760200D01*
X37949293Y-79769063D01*
X38018071Y-79772968D01*
X38023378Y-79772368D01*
X38023380Y-79772368D01*
X38144272Y-79758701D01*
X38247173Y-79747068D01*
X38252288Y-79745587D01*
X38252292Y-79745586D01*
X38377161Y-79709426D01*
X38468635Y-79682937D01*
X38676125Y-79582409D01*
X38680463Y-79579309D01*
X38680468Y-79579306D01*
X38846176Y-79460888D01*
X38863711Y-79448357D01*
X39026030Y-79284617D01*
X39069859Y-79222139D01*
X39125355Y-79177859D01*
X39173009Y-79168500D01*
X45348188Y-79168500D01*
X45416309Y-79188502D01*
X45462802Y-79242158D01*
X45469083Y-79259002D01*
X45490904Y-79333316D01*
X45495775Y-79340895D01*
X45565051Y-79448691D01*
X45565053Y-79448694D01*
X45569923Y-79456271D01*
X45576733Y-79462172D01*
X45673569Y-79546082D01*
X45673572Y-79546084D01*
X45680381Y-79551984D01*
X45688579Y-79555728D01*
X45769841Y-79592839D01*
X45813330Y-79612700D01*
X45822245Y-79613982D01*
X45822246Y-79613982D01*
X45953552Y-79632861D01*
X45953559Y-79632862D01*
X45958000Y-79633500D01*
X62458000Y-79633500D01*
X62531079Y-79628273D01*
X62609165Y-79605345D01*
X62662670Y-79589635D01*
X62662672Y-79589634D01*
X62671316Y-79587096D01*
X62725951Y-79551984D01*
X62786691Y-79512949D01*
X62786694Y-79512947D01*
X62794271Y-79508077D01*
X62807778Y-79492489D01*
X62884082Y-79404431D01*
X62884084Y-79404428D01*
X62889984Y-79397619D01*
X62913914Y-79345220D01*
X62946958Y-79272864D01*
X62946958Y-79272863D01*
X62950700Y-79264670D01*
X62956815Y-79222139D01*
X62970861Y-79124448D01*
X62970862Y-79124441D01*
X62971500Y-79120000D01*
X62971500Y-78647548D01*
X77637000Y-78647548D01*
X77637000Y-79077743D01*
X77637161Y-79082250D01*
X77641740Y-79146269D01*
X77644126Y-79159491D01*
X77680819Y-79284458D01*
X77688233Y-79300692D01*
X77757426Y-79408360D01*
X77769112Y-79421847D01*
X77865840Y-79505662D01*
X77880848Y-79515307D01*
X77997275Y-79568477D01*
X78014388Y-79573502D01*
X78145554Y-79592361D01*
X78154495Y-79593000D01*
X86127885Y-79593000D01*
X86143124Y-79588525D01*
X86144329Y-79587135D01*
X86146000Y-79579452D01*
X86146000Y-78652115D01*
X86144659Y-78647548D01*
X86654000Y-78647548D01*
X86654000Y-79574885D01*
X86658475Y-79590124D01*
X86659865Y-79591329D01*
X86667548Y-79593000D01*
X94647743Y-79593000D01*
X94652250Y-79592839D01*
X94716269Y-79588260D01*
X94729491Y-79585874D01*
X94854458Y-79549181D01*
X94870692Y-79541767D01*
X94978360Y-79472574D01*
X94991847Y-79460888D01*
X95075662Y-79364160D01*
X95085307Y-79349152D01*
X95138477Y-79232725D01*
X95143502Y-79215612D01*
X95162361Y-79084446D01*
X95163000Y-79075503D01*
X95163000Y-78682423D01*
X101348255Y-78682423D01*
X101356638Y-78734471D01*
X101359212Y-78744793D01*
X101430230Y-78952810D01*
X101434497Y-78962533D01*
X101539556Y-79155625D01*
X101545402Y-79164491D01*
X101681486Y-79337113D01*
X101688750Y-79344875D01*
X101851967Y-79492094D01*
X101860444Y-79498528D01*
X102046122Y-79616136D01*
X102055567Y-79621053D01*
X102258406Y-79705694D01*
X102268545Y-79708950D01*
X102408345Y-79741096D01*
X102422422Y-79740257D01*
X102426000Y-79730999D01*
X102426000Y-78682115D01*
X102424659Y-78677548D01*
X102934000Y-78677548D01*
X102934000Y-79729941D01*
X102938151Y-79744079D01*
X102948798Y-79745774D01*
X102952192Y-79745096D01*
X103163333Y-79683954D01*
X103173259Y-79680143D01*
X103371065Y-79584307D01*
X103380212Y-79578876D01*
X103559041Y-79451083D01*
X103567149Y-79444182D01*
X103721893Y-79288082D01*
X103728706Y-79279933D01*
X103854940Y-79099988D01*
X103860295Y-79090787D01*
X103954399Y-78892156D01*
X103958123Y-78882197D01*
X104015968Y-78675718D01*
X104014430Y-78667351D01*
X104002137Y-78664000D01*
X102952115Y-78664000D01*
X102936876Y-78668475D01*
X102935671Y-78669865D01*
X102934000Y-78677548D01*
X102424659Y-78677548D01*
X102421525Y-78666876D01*
X102420135Y-78665671D01*
X102412452Y-78664000D01*
X101363403Y-78664000D01*
X101350222Y-78667870D01*
X101348255Y-78682423D01*
X95163000Y-78682423D01*
X95163000Y-78652115D01*
X95158525Y-78636876D01*
X95157135Y-78635671D01*
X95149452Y-78634000D01*
X86672115Y-78634000D01*
X86656876Y-78638475D01*
X86655671Y-78639865D01*
X86654000Y-78647548D01*
X86144659Y-78647548D01*
X86141525Y-78636876D01*
X86140135Y-78635671D01*
X86132452Y-78634000D01*
X77655115Y-78634000D01*
X77639876Y-78638475D01*
X77638671Y-78639865D01*
X77637000Y-78647548D01*
X62971500Y-78647548D01*
X62971500Y-77720000D01*
X62966273Y-77646921D01*
X62938425Y-77552080D01*
X62927635Y-77515330D01*
X62927634Y-77515328D01*
X62925096Y-77506684D01*
X62892693Y-77456264D01*
X62850949Y-77391309D01*
X62850947Y-77391306D01*
X62846077Y-77383729D01*
X62809045Y-77351640D01*
X62742431Y-77293918D01*
X62742428Y-77293916D01*
X62735619Y-77288016D01*
X62727422Y-77284272D01*
X62727418Y-77284270D01*
X62688779Y-77266624D01*
X62635124Y-77220131D01*
X62615122Y-77152010D01*
X62635124Y-77083890D01*
X62673001Y-77046013D01*
X62786691Y-76972949D01*
X62786694Y-76972947D01*
X62794271Y-76968077D01*
X62807778Y-76952489D01*
X62884082Y-76864431D01*
X62884084Y-76864428D01*
X62889984Y-76857619D01*
X62913914Y-76805220D01*
X62946958Y-76732864D01*
X62946958Y-76732863D01*
X62950700Y-76724670D01*
X62956815Y-76682139D01*
X62970861Y-76584448D01*
X62970862Y-76584441D01*
X62971500Y-76580000D01*
X62971500Y-76107548D01*
X77637000Y-76107548D01*
X77637000Y-76537743D01*
X77637161Y-76542250D01*
X77641740Y-76606269D01*
X77644126Y-76619491D01*
X77680819Y-76744458D01*
X77688233Y-76760692D01*
X77757426Y-76868360D01*
X77769112Y-76881847D01*
X77865840Y-76965662D01*
X77880848Y-76975307D01*
X77920251Y-76993301D01*
X77973907Y-77039794D01*
X77993909Y-77107915D01*
X77973907Y-77176035D01*
X77936030Y-77213913D01*
X77821637Y-77287428D01*
X77808153Y-77299112D01*
X77724338Y-77395840D01*
X77714693Y-77410848D01*
X77661523Y-77527275D01*
X77656498Y-77544388D01*
X77637639Y-77675554D01*
X77637000Y-77684495D01*
X77637000Y-78107885D01*
X77641475Y-78123124D01*
X77642865Y-78124329D01*
X77650548Y-78126000D01*
X95144885Y-78126000D01*
X95160124Y-78121525D01*
X95161329Y-78120135D01*
X95163000Y-78112452D01*
X95163000Y-77682257D01*
X95162839Y-77677750D01*
X95158260Y-77613731D01*
X95155874Y-77600509D01*
X95119181Y-77475542D01*
X95111767Y-77459308D01*
X95042574Y-77351640D01*
X95030888Y-77338153D01*
X94934160Y-77254338D01*
X94919152Y-77244693D01*
X94879749Y-77226699D01*
X94826093Y-77180206D01*
X94806091Y-77112085D01*
X94826093Y-77043965D01*
X94863970Y-77006087D01*
X94978363Y-76932572D01*
X94991847Y-76920888D01*
X95075662Y-76824160D01*
X95085307Y-76809152D01*
X95138477Y-76692725D01*
X95143502Y-76675612D01*
X95162361Y-76544446D01*
X95163000Y-76535503D01*
X95163000Y-76142423D01*
X101348255Y-76142423D01*
X101356638Y-76194471D01*
X101359212Y-76204793D01*
X101430230Y-76412810D01*
X101434497Y-76422533D01*
X101539556Y-76615625D01*
X101545402Y-76624491D01*
X101681486Y-76797113D01*
X101688750Y-76804875D01*
X101851967Y-76952094D01*
X101860444Y-76958528D01*
X101979188Y-77033740D01*
X102026033Y-77087088D01*
X102036600Y-77157294D01*
X102007533Y-77222067D01*
X101977132Y-77247903D01*
X101881486Y-77305942D01*
X101872896Y-77312206D01*
X101706884Y-77456264D01*
X101699464Y-77463895D01*
X101560100Y-77633860D01*
X101554075Y-77642627D01*
X101445342Y-77833644D01*
X101440877Y-77843308D01*
X101365882Y-78049916D01*
X101363111Y-78060184D01*
X101349008Y-78138174D01*
X101350427Y-78151414D01*
X101365062Y-78156000D01*
X102407885Y-78156000D01*
X102423124Y-78151525D01*
X102424329Y-78150135D01*
X102426000Y-78142452D01*
X102426000Y-76142115D01*
X102424659Y-76137548D01*
X102934000Y-76137548D01*
X102934000Y-78137885D01*
X102938475Y-78153124D01*
X102939865Y-78154329D01*
X102947548Y-78156000D01*
X103999079Y-78156000D01*
X104012610Y-78152027D01*
X104013876Y-78143218D01*
X103966954Y-77962433D01*
X103963419Y-77952395D01*
X103873147Y-77751998D01*
X103867967Y-77742692D01*
X103745218Y-77560366D01*
X103738557Y-77552080D01*
X103586830Y-77393030D01*
X103578873Y-77385990D01*
X103402524Y-77254783D01*
X103389523Y-77246721D01*
X103342170Y-77193823D01*
X103330933Y-77123721D01*
X103359380Y-77058673D01*
X103382666Y-77037122D01*
X103559041Y-76911083D01*
X103567149Y-76904182D01*
X103721893Y-76748082D01*
X103728706Y-76739933D01*
X103854940Y-76559988D01*
X103860295Y-76550787D01*
X103954399Y-76352156D01*
X103958123Y-76342197D01*
X104015968Y-76135718D01*
X104014430Y-76127351D01*
X104002137Y-76124000D01*
X102952115Y-76124000D01*
X102936876Y-76128475D01*
X102935671Y-76129865D01*
X102934000Y-76137548D01*
X102424659Y-76137548D01*
X102421525Y-76126876D01*
X102420135Y-76125671D01*
X102412452Y-76124000D01*
X101363403Y-76124000D01*
X101350222Y-76127870D01*
X101348255Y-76142423D01*
X95163000Y-76142423D01*
X95163000Y-76112115D01*
X95158525Y-76096876D01*
X95157135Y-76095671D01*
X95149452Y-76094000D01*
X77655115Y-76094000D01*
X77639876Y-76098475D01*
X77638671Y-76099865D01*
X77637000Y-76107548D01*
X62971500Y-76107548D01*
X62971500Y-75180000D01*
X62966273Y-75106921D01*
X62938425Y-75012080D01*
X62927635Y-74975330D01*
X62927634Y-74975328D01*
X62925096Y-74966684D01*
X62892693Y-74916264D01*
X62850949Y-74851309D01*
X62850947Y-74851306D01*
X62846077Y-74843729D01*
X62809045Y-74811640D01*
X62742431Y-74753918D01*
X62742428Y-74753916D01*
X62735619Y-74748016D01*
X62727422Y-74744272D01*
X62727418Y-74744270D01*
X62688779Y-74726624D01*
X62635124Y-74680131D01*
X62615122Y-74612010D01*
X62635124Y-74543890D01*
X62673001Y-74506013D01*
X62786691Y-74432949D01*
X62786694Y-74432947D01*
X62794271Y-74428077D01*
X62824710Y-74392949D01*
X62884082Y-74324431D01*
X62884084Y-74324428D01*
X62889984Y-74317619D01*
X62905141Y-74284431D01*
X62946958Y-74192864D01*
X62946958Y-74192863D01*
X62950700Y-74184670D01*
X62953937Y-74162158D01*
X62970861Y-74044448D01*
X62970862Y-74044441D01*
X62971500Y-74040000D01*
X62971500Y-72640000D01*
X62966273Y-72566921D01*
X62939467Y-72475626D01*
X62927635Y-72435330D01*
X62927634Y-72435328D01*
X62925096Y-72426684D01*
X62894519Y-72379105D01*
X62850949Y-72311309D01*
X62850947Y-72311306D01*
X62846077Y-72303729D01*
X62799915Y-72263729D01*
X62742431Y-72213918D01*
X62742428Y-72213916D01*
X62735619Y-72208016D01*
X62727422Y-72204272D01*
X62727418Y-72204270D01*
X62688779Y-72186624D01*
X62635124Y-72140131D01*
X62615122Y-72072010D01*
X62635124Y-72003890D01*
X62673001Y-71966013D01*
X62676305Y-71963890D01*
X62735242Y-71926013D01*
X62786691Y-71892949D01*
X62786694Y-71892947D01*
X62794271Y-71888077D01*
X62824710Y-71852949D01*
X62884082Y-71784431D01*
X62884084Y-71784428D01*
X62889984Y-71777619D01*
X62905141Y-71744431D01*
X62946958Y-71652864D01*
X62946958Y-71652863D01*
X62950700Y-71644670D01*
X62953937Y-71622158D01*
X62970861Y-71504448D01*
X62970862Y-71504441D01*
X62971500Y-71500000D01*
X62971500Y-70100000D01*
X62966273Y-70026921D01*
X62939467Y-69935626D01*
X62927635Y-69895330D01*
X62927634Y-69895328D01*
X62925096Y-69886684D01*
X62894519Y-69839105D01*
X62850949Y-69771309D01*
X62850947Y-69771306D01*
X62846077Y-69763729D01*
X62799915Y-69723729D01*
X62742431Y-69673918D01*
X62742428Y-69673916D01*
X62735619Y-69668016D01*
X62727422Y-69664272D01*
X62727418Y-69664270D01*
X62688779Y-69646624D01*
X62635124Y-69600131D01*
X62615122Y-69532010D01*
X62635124Y-69463890D01*
X62673001Y-69426013D01*
X62676305Y-69423890D01*
X62735242Y-69386013D01*
X62786691Y-69352949D01*
X62786694Y-69352947D01*
X62794271Y-69348077D01*
X62824710Y-69312949D01*
X62884082Y-69244431D01*
X62884084Y-69244428D01*
X62889984Y-69237619D01*
X62905141Y-69204431D01*
X62946958Y-69112864D01*
X62946958Y-69112863D01*
X62950700Y-69104670D01*
X62953937Y-69082158D01*
X62970861Y-68964448D01*
X62970862Y-68964441D01*
X62971500Y-68960000D01*
X62971500Y-67560000D01*
X62966273Y-67486921D01*
X62939467Y-67395626D01*
X62927635Y-67355330D01*
X62927634Y-67355328D01*
X62925096Y-67346684D01*
X62894519Y-67299105D01*
X62850949Y-67231309D01*
X62850947Y-67231306D01*
X62846077Y-67223729D01*
X62799915Y-67183729D01*
X62742431Y-67133918D01*
X62742428Y-67133916D01*
X62735619Y-67128016D01*
X62727422Y-67124272D01*
X62727418Y-67124270D01*
X62688779Y-67106624D01*
X62635124Y-67060131D01*
X62615122Y-66992010D01*
X62635124Y-66923890D01*
X62673001Y-66886013D01*
X62676305Y-66883890D01*
X62735242Y-66846013D01*
X62786691Y-66812949D01*
X62786694Y-66812947D01*
X62794271Y-66808077D01*
X62824710Y-66772949D01*
X62884082Y-66704431D01*
X62884084Y-66704428D01*
X62889984Y-66697619D01*
X62905141Y-66664431D01*
X62946958Y-66572864D01*
X62946958Y-66572863D01*
X62950700Y-66564670D01*
X62953937Y-66542158D01*
X62970861Y-66424448D01*
X62970862Y-66424441D01*
X62971500Y-66420000D01*
X62971500Y-65020000D01*
X62966273Y-64946921D01*
X62939467Y-64855626D01*
X62927635Y-64815330D01*
X62927634Y-64815328D01*
X62925096Y-64806684D01*
X62894519Y-64759105D01*
X62850949Y-64691309D01*
X62850947Y-64691306D01*
X62846077Y-64683729D01*
X62799915Y-64643729D01*
X62742431Y-64593918D01*
X62742428Y-64593916D01*
X62735619Y-64588016D01*
X62727422Y-64584272D01*
X62727418Y-64584270D01*
X62688779Y-64566624D01*
X62635124Y-64520131D01*
X62615122Y-64452010D01*
X62635124Y-64383890D01*
X62673001Y-64346013D01*
X62676305Y-64343890D01*
X62735242Y-64306013D01*
X62786691Y-64272949D01*
X62786694Y-64272947D01*
X62794271Y-64268077D01*
X62824710Y-64232949D01*
X62884082Y-64164431D01*
X62884084Y-64164428D01*
X62889984Y-64157619D01*
X62905141Y-64124431D01*
X62946958Y-64032864D01*
X62946958Y-64032863D01*
X62950700Y-64024670D01*
X62953937Y-64002158D01*
X62970861Y-63884448D01*
X62970862Y-63884441D01*
X62971500Y-63880000D01*
X62971500Y-62480000D01*
X62968639Y-62440000D01*
X77636500Y-62440000D01*
X77636500Y-63840000D01*
X77641727Y-63913079D01*
X77652128Y-63948502D01*
X77680350Y-64044617D01*
X77682904Y-64053316D01*
X77687775Y-64060895D01*
X77757051Y-64168691D01*
X77757053Y-64168694D01*
X77761923Y-64176271D01*
X77768733Y-64182172D01*
X77865569Y-64266082D01*
X77865572Y-64266084D01*
X77872381Y-64271984D01*
X77880578Y-64275728D01*
X77880582Y-64275730D01*
X77919221Y-64293376D01*
X77972876Y-64339869D01*
X77992878Y-64407990D01*
X77972876Y-64476110D01*
X77934999Y-64513987D01*
X77925439Y-64520131D01*
X77821309Y-64587051D01*
X77821306Y-64587053D01*
X77813729Y-64591923D01*
X77807828Y-64598733D01*
X77723918Y-64695569D01*
X77723916Y-64695572D01*
X77718016Y-64702381D01*
X77714272Y-64710579D01*
X77699749Y-64742381D01*
X77657300Y-64835330D01*
X77656018Y-64844245D01*
X77656018Y-64844246D01*
X77637139Y-64975552D01*
X77637138Y-64975559D01*
X77636500Y-64980000D01*
X77636500Y-66380000D01*
X77641727Y-66453079D01*
X77652128Y-66488502D01*
X77680350Y-66584617D01*
X77682904Y-66593316D01*
X77687775Y-66600895D01*
X77757051Y-66708691D01*
X77757053Y-66708694D01*
X77761923Y-66716271D01*
X77768733Y-66722172D01*
X77865569Y-66806082D01*
X77865572Y-66806084D01*
X77872381Y-66811984D01*
X77880578Y-66815728D01*
X77880582Y-66815730D01*
X77919221Y-66833376D01*
X77972876Y-66879869D01*
X77992878Y-66947990D01*
X77972876Y-67016110D01*
X77934999Y-67053987D01*
X77925439Y-67060131D01*
X77821309Y-67127051D01*
X77821306Y-67127053D01*
X77813729Y-67131923D01*
X77807828Y-67138733D01*
X77723918Y-67235569D01*
X77723916Y-67235572D01*
X77718016Y-67242381D01*
X77714272Y-67250579D01*
X77699749Y-67282381D01*
X77657300Y-67375330D01*
X77656018Y-67384245D01*
X77656018Y-67384246D01*
X77637139Y-67515552D01*
X77637138Y-67515559D01*
X77636500Y-67520000D01*
X77636500Y-68920000D01*
X77641727Y-68993079D01*
X77652128Y-69028502D01*
X77680350Y-69124617D01*
X77682904Y-69133316D01*
X77687775Y-69140895D01*
X77757051Y-69248691D01*
X77757053Y-69248694D01*
X77761923Y-69256271D01*
X77768733Y-69262172D01*
X77865569Y-69346082D01*
X77865572Y-69346084D01*
X77872381Y-69351984D01*
X77880578Y-69355728D01*
X77880582Y-69355730D01*
X77919221Y-69373376D01*
X77972876Y-69419869D01*
X77992878Y-69487990D01*
X77972876Y-69556110D01*
X77934999Y-69593987D01*
X77925439Y-69600131D01*
X77821309Y-69667051D01*
X77821306Y-69667053D01*
X77813729Y-69671923D01*
X77807828Y-69678733D01*
X77723918Y-69775569D01*
X77723916Y-69775572D01*
X77718016Y-69782381D01*
X77714272Y-69790579D01*
X77699749Y-69822381D01*
X77657300Y-69915330D01*
X77656018Y-69924245D01*
X77656018Y-69924246D01*
X77637139Y-70055552D01*
X77637138Y-70055559D01*
X77636500Y-70060000D01*
X77636500Y-71460000D01*
X77641727Y-71533079D01*
X77652128Y-71568502D01*
X77680350Y-71664617D01*
X77682904Y-71673316D01*
X77687775Y-71680895D01*
X77757051Y-71788691D01*
X77757053Y-71788694D01*
X77761923Y-71796271D01*
X77768733Y-71802172D01*
X77865569Y-71886082D01*
X77865572Y-71886084D01*
X77872381Y-71891984D01*
X77880578Y-71895728D01*
X77880582Y-71895730D01*
X77919221Y-71913376D01*
X77972876Y-71959869D01*
X77992878Y-72027990D01*
X77972876Y-72096110D01*
X77934999Y-72133987D01*
X77925439Y-72140131D01*
X77821309Y-72207051D01*
X77821306Y-72207053D01*
X77813729Y-72211923D01*
X77807828Y-72218733D01*
X77723918Y-72315569D01*
X77723916Y-72315572D01*
X77718016Y-72322381D01*
X77714272Y-72330579D01*
X77699749Y-72362381D01*
X77657300Y-72455330D01*
X77656018Y-72464245D01*
X77656018Y-72464246D01*
X77637139Y-72595552D01*
X77637138Y-72595559D01*
X77636500Y-72600000D01*
X77636500Y-74000000D01*
X77641727Y-74073079D01*
X77652128Y-74108502D01*
X77680350Y-74204617D01*
X77682904Y-74213316D01*
X77687775Y-74220895D01*
X77757051Y-74328691D01*
X77757053Y-74328694D01*
X77761923Y-74336271D01*
X77768733Y-74342172D01*
X77865569Y-74426082D01*
X77865572Y-74426084D01*
X77872381Y-74431984D01*
X77880578Y-74435728D01*
X77880582Y-74435730D01*
X77919757Y-74453621D01*
X77973413Y-74500114D01*
X77993414Y-74568235D01*
X77973411Y-74636356D01*
X77935534Y-74674232D01*
X77821640Y-74747426D01*
X77808153Y-74759112D01*
X77724338Y-74855840D01*
X77714693Y-74870848D01*
X77661523Y-74987275D01*
X77656498Y-75004388D01*
X77637639Y-75135554D01*
X77637000Y-75144495D01*
X77637000Y-75567885D01*
X77641475Y-75583124D01*
X77642865Y-75584329D01*
X77650548Y-75586000D01*
X95144885Y-75586000D01*
X95160124Y-75581525D01*
X95161329Y-75580135D01*
X95163000Y-75572452D01*
X95163000Y-75142257D01*
X95162839Y-75137750D01*
X95158260Y-75073731D01*
X95155874Y-75060509D01*
X95119181Y-74935542D01*
X95111767Y-74919308D01*
X95042574Y-74811640D01*
X95030888Y-74798153D01*
X94934160Y-74714338D01*
X94919148Y-74704691D01*
X94880284Y-74686942D01*
X94826628Y-74640449D01*
X94806627Y-74572328D01*
X94826630Y-74504207D01*
X94864506Y-74466331D01*
X94864894Y-74466082D01*
X94912122Y-74435730D01*
X94978691Y-74392949D01*
X94978694Y-74392947D01*
X94986271Y-74388077D01*
X95026048Y-74342172D01*
X95076082Y-74284431D01*
X95076084Y-74284428D01*
X95081984Y-74277619D01*
X95087647Y-74265220D01*
X95117315Y-74200255D01*
X95142700Y-74144670D01*
X95142835Y-74144732D01*
X95178477Y-74089275D01*
X95243058Y-74059782D01*
X95260988Y-74058500D01*
X101463164Y-74058500D01*
X101531285Y-74078502D01*
X101562114Y-74106494D01*
X101684424Y-74261644D01*
X101688389Y-74265220D01*
X101851659Y-74412489D01*
X101851665Y-74412494D01*
X101855629Y-74416069D01*
X101860142Y-74418928D01*
X101860144Y-74418929D01*
X101978712Y-74494029D01*
X102025557Y-74547377D01*
X102036124Y-74617583D01*
X102007057Y-74682357D01*
X101976656Y-74708192D01*
X101881486Y-74765942D01*
X101872896Y-74772206D01*
X101706884Y-74916264D01*
X101699464Y-74923895D01*
X101560100Y-75093860D01*
X101554075Y-75102627D01*
X101445342Y-75293644D01*
X101440877Y-75303308D01*
X101365882Y-75509916D01*
X101363111Y-75520184D01*
X101349008Y-75598174D01*
X101350427Y-75611414D01*
X101365062Y-75616000D01*
X103999079Y-75616000D01*
X104012610Y-75612027D01*
X104013876Y-75603218D01*
X103966954Y-75422433D01*
X103963419Y-75412395D01*
X103873147Y-75211998D01*
X103867967Y-75202692D01*
X103745218Y-75020366D01*
X103738557Y-75012080D01*
X103586830Y-74853030D01*
X103578873Y-74845990D01*
X103402524Y-74714783D01*
X103389981Y-74707005D01*
X103342628Y-74654107D01*
X103331391Y-74584005D01*
X103359838Y-74518957D01*
X103383122Y-74497409D01*
X103563711Y-74368357D01*
X103709893Y-74220895D01*
X103722277Y-74208403D01*
X103722278Y-74208402D01*
X103726030Y-74204617D01*
X103790245Y-74113079D01*
X103855375Y-74020236D01*
X103855376Y-74020234D01*
X103858439Y-74015868D01*
X103957153Y-73807508D01*
X104019349Y-73585494D01*
X104043249Y-73356176D01*
X104043500Y-73330000D01*
X104043250Y-73327052D01*
X104024458Y-73105576D01*
X104024457Y-73105572D01*
X104024007Y-73100265D01*
X103966084Y-72877098D01*
X103914731Y-72763098D01*
X103873578Y-72671743D01*
X103873577Y-72671741D01*
X103871388Y-72666882D01*
X103854810Y-72642257D01*
X103797886Y-72557705D01*
X103742627Y-72475626D01*
X103735202Y-72467842D01*
X103650846Y-72379415D01*
X103583482Y-72308799D01*
X103398504Y-72171171D01*
X103393743Y-72168751D01*
X103390425Y-72166693D01*
X103343071Y-72113796D01*
X103331832Y-72043695D01*
X103360277Y-71978645D01*
X103383564Y-71957093D01*
X103474674Y-71891984D01*
X103563711Y-71828357D01*
X103709893Y-71680895D01*
X103722277Y-71668403D01*
X103722278Y-71668402D01*
X103726030Y-71664617D01*
X103790245Y-71573079D01*
X103855375Y-71480236D01*
X103855376Y-71480234D01*
X103858439Y-71475868D01*
X103957153Y-71267508D01*
X104019349Y-71045494D01*
X104043249Y-70816176D01*
X104043500Y-70790000D01*
X104043250Y-70787052D01*
X104024458Y-70565576D01*
X104024457Y-70565572D01*
X104024007Y-70560265D01*
X103966084Y-70337098D01*
X103914731Y-70223098D01*
X103873578Y-70131743D01*
X103873577Y-70131741D01*
X103871388Y-70126882D01*
X103854810Y-70102257D01*
X103797886Y-70017705D01*
X103742627Y-69935626D01*
X103735202Y-69927842D01*
X103650846Y-69839415D01*
X103583482Y-69768799D01*
X103398504Y-69631171D01*
X103393743Y-69628751D01*
X103390425Y-69626693D01*
X103343071Y-69573796D01*
X103331832Y-69503695D01*
X103360277Y-69438645D01*
X103383564Y-69417093D01*
X103474674Y-69351984D01*
X103563711Y-69288357D01*
X103709893Y-69140895D01*
X103722277Y-69128403D01*
X103722278Y-69128402D01*
X103726030Y-69124617D01*
X103790245Y-69033079D01*
X103855375Y-68940236D01*
X103855376Y-68940234D01*
X103858439Y-68935868D01*
X103957153Y-68727508D01*
X104019349Y-68505494D01*
X104043249Y-68276176D01*
X104043500Y-68250000D01*
X104043250Y-68247052D01*
X104024458Y-68025576D01*
X104024457Y-68025572D01*
X104024007Y-68020265D01*
X103966084Y-67797098D01*
X103914731Y-67683098D01*
X103873578Y-67591743D01*
X103873577Y-67591741D01*
X103871388Y-67586882D01*
X103854810Y-67562257D01*
X103797886Y-67477705D01*
X103742627Y-67395626D01*
X103735202Y-67387842D01*
X103650846Y-67299415D01*
X103583482Y-67228799D01*
X103398504Y-67091171D01*
X103393743Y-67088751D01*
X103390425Y-67086693D01*
X103343071Y-67033796D01*
X103331832Y-66963695D01*
X103360277Y-66898645D01*
X103383564Y-66877093D01*
X103474674Y-66811984D01*
X103563711Y-66748357D01*
X103709893Y-66600895D01*
X103722277Y-66588403D01*
X103722278Y-66588402D01*
X103726030Y-66584617D01*
X103790245Y-66493079D01*
X103855375Y-66400236D01*
X103855376Y-66400234D01*
X103858439Y-66395868D01*
X103957153Y-66187508D01*
X104019349Y-65965494D01*
X104043249Y-65736176D01*
X104043500Y-65710000D01*
X104043250Y-65707052D01*
X104024458Y-65485576D01*
X104024457Y-65485572D01*
X104024007Y-65480265D01*
X103966084Y-65257098D01*
X103914731Y-65143098D01*
X103873578Y-65051743D01*
X103873577Y-65051741D01*
X103871388Y-65046882D01*
X103854810Y-65022257D01*
X103797886Y-64937705D01*
X103742627Y-64855626D01*
X103735202Y-64847842D01*
X103650846Y-64759415D01*
X103583482Y-64688799D01*
X103398504Y-64551171D01*
X103393743Y-64548751D01*
X103390425Y-64546693D01*
X103343071Y-64493796D01*
X103331832Y-64423695D01*
X103360277Y-64358645D01*
X103383564Y-64337093D01*
X103474674Y-64271984D01*
X103563711Y-64208357D01*
X103709893Y-64060895D01*
X103722277Y-64048403D01*
X103722278Y-64048402D01*
X103726030Y-64044617D01*
X103790245Y-63953079D01*
X103855375Y-63860236D01*
X103855376Y-63860234D01*
X103858439Y-63855868D01*
X103957153Y-63647508D01*
X104019349Y-63425494D01*
X104043249Y-63196176D01*
X104043500Y-63170000D01*
X104043250Y-63167052D01*
X104024458Y-62945576D01*
X104024457Y-62945572D01*
X104024007Y-62940265D01*
X103966084Y-62717098D01*
X103914731Y-62603098D01*
X103873578Y-62511743D01*
X103873577Y-62511741D01*
X103871388Y-62506882D01*
X103854810Y-62482257D01*
X103797886Y-62397705D01*
X103742627Y-62315626D01*
X103735202Y-62307842D01*
X103650846Y-62219415D01*
X103583482Y-62148799D01*
X103398504Y-62011171D01*
X103393753Y-62008755D01*
X103393749Y-62008753D01*
X103197740Y-61909097D01*
X103197739Y-61909097D01*
X103192982Y-61906678D01*
X103052033Y-61862912D01*
X102977895Y-61839891D01*
X102977889Y-61839890D01*
X102972792Y-61838307D01*
X102867798Y-61824391D01*
X102749515Y-61808714D01*
X102749510Y-61808714D01*
X102744230Y-61808014D01*
X102738900Y-61808214D01*
X102738899Y-61808214D01*
X102629030Y-61812339D01*
X102513831Y-61816663D01*
X102431368Y-61833966D01*
X102293411Y-61862912D01*
X102293408Y-61862913D01*
X102288184Y-61864009D01*
X102073740Y-61948697D01*
X101876631Y-62068306D01*
X101872601Y-62071803D01*
X101712675Y-62210579D01*
X101702492Y-62219415D01*
X101699109Y-62223541D01*
X101699105Y-62223545D01*
X101607398Y-62335391D01*
X101548739Y-62375385D01*
X101509964Y-62381500D01*
X95256876Y-62381500D01*
X95188755Y-62361498D01*
X95142262Y-62307842D01*
X95135980Y-62290998D01*
X95119635Y-62235330D01*
X95119634Y-62235328D01*
X95117096Y-62226684D01*
X95067042Y-62148799D01*
X95042949Y-62111309D01*
X95042947Y-62111306D01*
X95038077Y-62103729D01*
X94994004Y-62065539D01*
X94934431Y-62013918D01*
X94934428Y-62013916D01*
X94927619Y-62008016D01*
X94890451Y-61991042D01*
X94802864Y-61951042D01*
X94802863Y-61951042D01*
X94794670Y-61947300D01*
X94785755Y-61946018D01*
X94785754Y-61946018D01*
X94654448Y-61927139D01*
X94654441Y-61927138D01*
X94650000Y-61926500D01*
X78150000Y-61926500D01*
X78076921Y-61931727D01*
X78023884Y-61947300D01*
X77945330Y-61970365D01*
X77945328Y-61970366D01*
X77936684Y-61972904D01*
X77914284Y-61987300D01*
X77821309Y-62047051D01*
X77821306Y-62047053D01*
X77813729Y-62051923D01*
X77807828Y-62058733D01*
X77723918Y-62155569D01*
X77723916Y-62155572D01*
X77718016Y-62162381D01*
X77714272Y-62170579D01*
X77699749Y-62202381D01*
X77657300Y-62295330D01*
X77656018Y-62304245D01*
X77656018Y-62304246D01*
X77637139Y-62435552D01*
X77637138Y-62435559D01*
X77636500Y-62440000D01*
X62968639Y-62440000D01*
X62966273Y-62406921D01*
X62939467Y-62315626D01*
X62927635Y-62275330D01*
X62927634Y-62275328D01*
X62925096Y-62266684D01*
X62894519Y-62219105D01*
X62850949Y-62151309D01*
X62850947Y-62151306D01*
X62846077Y-62143729D01*
X62799915Y-62103729D01*
X62742431Y-62053918D01*
X62742428Y-62053916D01*
X62735619Y-62048016D01*
X62669401Y-62017775D01*
X62610864Y-61991042D01*
X62610863Y-61991042D01*
X62602670Y-61987300D01*
X62593755Y-61986018D01*
X62593754Y-61986018D01*
X62462448Y-61967139D01*
X62462441Y-61967138D01*
X62458000Y-61966500D01*
X45958000Y-61966500D01*
X45884921Y-61971727D01*
X45831884Y-61987300D01*
X45753330Y-62010365D01*
X45753328Y-62010366D01*
X45744684Y-62012904D01*
X45737105Y-62017775D01*
X45629309Y-62087051D01*
X45629306Y-62087053D01*
X45621729Y-62091923D01*
X45615828Y-62098733D01*
X45531918Y-62195569D01*
X45531916Y-62195572D01*
X45526016Y-62202381D01*
X45465300Y-62335330D01*
X45462468Y-62334037D01*
X45432446Y-62380737D01*
X45367861Y-62410220D01*
X45349948Y-62411500D01*
X39174239Y-62411500D01*
X39106118Y-62391498D01*
X39069719Y-62355867D01*
X39061045Y-62342984D01*
X39042627Y-62315626D01*
X39035202Y-62307842D01*
X38950846Y-62219415D01*
X38883482Y-62148799D01*
X38698504Y-62011171D01*
X38693753Y-62008755D01*
X38693749Y-62008753D01*
X38497740Y-61909097D01*
X38497739Y-61909097D01*
X38492982Y-61906678D01*
X38352033Y-61862912D01*
X38277895Y-61839891D01*
X38277889Y-61839890D01*
X38272792Y-61838307D01*
X38167798Y-61824391D01*
X38049515Y-61808714D01*
X38049510Y-61808714D01*
X38044230Y-61808014D01*
X38038900Y-61808214D01*
X38038899Y-61808214D01*
X37929030Y-61812339D01*
X37813831Y-61816663D01*
X37731368Y-61833966D01*
X37593411Y-61862912D01*
X37593408Y-61862913D01*
X37588184Y-61864009D01*
X37373740Y-61948697D01*
X37176631Y-62068306D01*
X37172601Y-62071803D01*
X37012675Y-62210579D01*
X37002492Y-62219415D01*
X36999109Y-62223541D01*
X36999105Y-62223545D01*
X36943798Y-62290998D01*
X36856304Y-62397705D01*
X36742245Y-62598077D01*
X36663578Y-62814802D01*
X36662629Y-62820051D01*
X36662628Y-62820054D01*
X36640890Y-62940265D01*
X36622551Y-63041683D01*
X36622500Y-63047023D01*
X36621097Y-63193210D01*
X36620338Y-63272233D01*
X29866529Y-63272233D01*
X29800630Y-50026627D01*
X29820292Y-49958407D01*
X29873716Y-49911648D01*
X29926628Y-49900000D01*
X109874000Y-49900000D01*
X109942121Y-49920002D01*
G37*
%TD.AperFunction*%
%TD*%
M02*
